<?xml version="1.0" encoding="UTF-8" standalone="no"?> <!-- Created with Vectornator for iOS (http://vectornator.io/) --><!DOCTYPE svg PUBLIC "-//W3C//DTD SVG 1.1//EN" "http://www.w3.org/Graphics/SVG/1.1/DTD/svg11.dtd">
<svg style="fill-rule:evenodd;clip-rule:evenodd;stroke-linecap:round;stroke-linejoin:round;" xmlns:vectornator="http://vectornator.io" xmlns:xlink="http://www.w3.org/1999/xlink" xmlns="http://www.w3.org/2000/svg" xml:space="preserve" version="1.1" viewBox="0 0 700 223.63">
<metadata>
<vectornator:setting key="DynamicGuides" value="1"/>
<vectornator:setting key="Units" value="Points"/>
<vectornator:setting key="GridSpacing" value="36"/>
<vectornator:setting key="SnapToGuides" value="1"/>
<vectornator:setting key="RulersVisible" value="1"/>
</metadata>
<defs/>
<g id="Untitled" vectornator:layerName="Untitled">
<g opacity="1">
<path d="M205.01+90.49C204.85+90.26+204.74+90.14+204.66+90.14L184.55+90.14C184.47+90.14+184.39+90.22+184.32+90.37L184.32+96.38L184.09+96.73C176.85+91.72+168.64+89.22+159.47+89.22C148.37+89.22+138.43+93.11+129.65+100.89C125.26+105.36+122.37+109.14+120.98+112.22C117.51+119.08+115.78+125.09+115.78+130.25L115.78+135.34C115.78+137.58+116.4+140.93+117.63+145.4C119.17+149.87+120.67+153.18+122.14+155.34C123.14+157.27+125.34+160.08+128.73+163.78C137.67+172.18+147.84+176.38+159.25+176.38C168.42+176.38+176.7+173.95+184.1+169.1L184.33+169.1L184.33+174.19L184.45+174.54L185.14+174.42L204.1+174.42L204.79+174.54L205.02+174.08C205.02+174.08+196.87+159.05+196.87+134.14C196.87+108.06+205.01+90.49+205.01+90.49ZM180.16+145.97C174.76+152.98+168.06+156.49+160.05+156.49C152.42+156.49+145.91+153.22+140.52+146.66C137.59+142.04+136.13+137.99+136.13+134.52L136.13+130.82C136.13+129.74+136.51+127.78+137.29+124.92C138.52+121.68+140.45+118.72+143.07+116.02C148.16+111.17+153.63+108.74+159.48+108.74L160.4+108.74C165.02+108.74+169.76+110.36+174.62+113.59C178.7+117.21+181.25+120.45+182.25+123.3C183.64+126.92+184.33+130+184.33+132.55C184.32+137.11+182.93+141.58+180.16+145.97Z" opacity="1" fill="#040000"/>
<path d="M210.26+131.82C213.5+136.83+215.11+139.6+215.11+140.14C212.64+141.68+210.18+143.11+207.71+144.42L207.48+144.19L207.48+133.56C207.64+133.25+208.56+132.67+210.26+131.82Z" opacity="1" fill="#d0a913"/>
<path d="M219.04+141.53C219.04+141.76+220.58+144.42+223.66+149.51L223.66+149.74C223.04+150.2+217.76+153.32+207.82+159.1C207.59+159.1+207.47+158.98+207.47+158.75L207.47+148.35C208.01+147.73+211.78+145.46+218.8+141.53C218.8+141.53+219.04+141.53+219.04+141.53Z" opacity="1" fill="#d0a913"/>
<path d="M227.71+151.13L227.83+151.13L232.45+159.45C216.11+168.85+207.79+173.55+207.48+173.55L207.48+162.68C220.43+154.98+227.17+151.13+227.71+151.13Z" opacity="1" fill="#d0a913"/>
<path d="M272.51+103.2C286.95+117.58+297.83+128.31+302.33+132.71C304.03+134.37+306.74+134.37+308.44+132.71C311.03+130.19+311.57+126.81+312.89+125.56C316.12+122.5+322.61+127.52+322.61+127.52C322.01+128.23+267.5+183.65+267.19+183.65C266.96+183.65+260.26+178.55+264.68+173.81C265.73+172.69+268.8+171.44+270.77+170.72C271.57+170.43+271.8+169.41+271.2+168.8C265.73+163.34+245.06+142.72+245+142.72C244.92+142.72+242+145.65+236.22+151.5C236.06+151.27+235.99+139.71+235.99+139.71C235.98+139.19+272.51+103.2+272.51+103.2Z" opacity="1" fill="#040000"/>
<path d="M438.99+141.93L438.99+142.05C439.07+142.05+439.26+142.13+439.57+142.28L439.57+142.05C439.49+142.05+439.34+142.01+439.11+141.93L438.99+141.93Z" opacity="1" fill="#040000"/>
<path d="M440.15+142.39L440.15+142.62C440.3+142.62+440.46+142.66+440.61+142.74L440.73+142.74L440.73+142.62C440.65+142.62+440.5+142.54+440.27+142.39L440.15+142.39Z" opacity="1" fill="#040000"/>
<path d="M440.96+142.85L440.96+142.97C441.19+142.97+441.73+143.16+442.58+143.55L442.7+143.55L442.7+143.43L441.08+142.85L440.96+142.85Z" opacity="1" fill="#040000"/>
<path d="M442.8+143.54L442.8+143.66C443.03+143.66+443.45+143.78+444.07+144.01L444.19+144.01L444.19+143.89C443.65+143.66+443.34+143.54+443.27+143.54L442.8+143.54Z" opacity="1" fill="#040000"/>
<path d="M462.92+128.06L463.15+128.06C468.85+133.92+473.67+139.7+477.6+145.4C484.3+155.19+488.85+163.28+491.24+169.67C491.86+170.9+492.16+171.91+492.16+172.67C492.16+174.21+490.5+174.98+487.19+174.98L472.16+174.98C469.39+174.98+467.77+174.36+467.3+173.13L461.64+161.34C459.02+156.41+455.59+151.25+451.35+145.85C451.27+145.85+450.77+145.31+449.85+144.23L449.85+144.11C452.01+143.8+454.32+142.8+456.79+141.1C460.88+137.88+462.92+133.53+462.92+128.06Z" opacity="1" fill="#040000"/>
<path d="M462.57+125.86L462.69+125.86L462.69+125.86L462.69+126.32L462.69+126.32L462.57+126.32L462.57+126.32L462.57+125.86L462.57+125.86Z" opacity="1" fill="#040000"/>
<path d="M619.27+78.12C622+78.12+624.18+80.4+624.06+83.13C623.65+92.44+622.78+111.97+622.51+117.75C622.5+118.05+622.92+118.14+623.03+117.85C624.65+113.68+629.55+101.01+637.63+79.96C637.95+79.13+638.74+78.58+639.63+78.58L658.47+78.58C659.96+78.58+660.99+80.05+660.48+81.45C655.48+95.01+634.35+150.65+625.61+173.76C625.31+174.57+624.53+175.09+623.67+175.07C620.28+175.01+611.65+174.84+606.06+174.73C603.25+174.68+601.03+172.33+601.13+169.52C601.46+160.35+602.15+141.57+602.38+136.14C602.39+135.84+601.98+135.75+601.86+136.03C600.16+140.19+595.17+152.82+586.89+173.9C586.58+174.69+585.82+175.21+584.97+175.21L566.45+175.21C565.02+175.21+564.02+173.78+564.53+172.43L599.51+79.16C599.75+78.53+600.35+78.11+601.02+78.11L619.27+78.11L619.27+78.12Z" opacity="1" fill="#040000"/>
<g opacity="1">
<path d="M259.48+96.06L259.48+96.22C259.79+96.22+260.51+96.48+261.65+97L261.81+97L261.81+96.84L259.63+96.06L259.48+96.06Z" opacity="1" fill="#d0a913"/>
<path d="M261.97+97L261.97+97.15C262.28+97.15+262.85+97.31+263.68+97.62L263.83+97.62L263.83+97.46C263.1+97.15+262.69+96.99+262.59+96.99L261.97+96.99L261.97+97Z" opacity="1" fill="#d0a913"/>
<path d="M257+94.82L256.85+94.82L256.85+94.97C256.95+94.97+257.21+95.07+257.63+95.28L257.63+95.03C257.58+95+257.54+94.97+257.49+94.95C257.37+94.93+257.22+94.9+257+94.82Z" opacity="1" fill="#d0a913"/>
<path d="M258.4+95.44L258.4+95.75C258.61+95.75+258.81+95.8+259.02+95.91L259.17+95.91L259.17+95.8C258.92+95.69+258.68+95.57+258.43+95.44C258.43+95.44+258.4+95.44+258.4+95.44Z" opacity="1" fill="#d0a913"/>
<path d="M280.14+60.03L280.09+60.03C280.3+60.19+280.51+60.33+280.72+60.5C280.54+60.31+280.35+60.15+280.14+60.03Z" opacity="1" fill="#d0a913"/>
<path d="M288.53+73.23L288.69+73.23L288.69+73.23L288.69+73.85L288.69+73.85L288.53+73.85L288.53+73.85L288.53+73.23L288.53+73.23Z" opacity="1" fill="#d0a913"/>
<path d="M286.05+87.37L286.21+86.59C286.21+86.51+286.19+86.43+286.19+86.35C286.01+86.7+285.81+87.03+285.62+87.37C285.62+87.37+286.05+87.37+286.05+87.37Z" opacity="1" fill="#d0a913"/>
<path d="M284.49+89.23C284.8+89.23+284.96+89.13+284.96+88.92L284.96+88.43C284.77+88.71+284.56+88.96+284.36+89.23L284.49+89.23Z" opacity="1" fill="#d0a913"/>
<path d="M283.25+90.78C283.46+90.78+283.56+90.62+283.56+90.31L283.56+90.24C283.4+90.42+283.24+90.59+283.08+90.77L283.25+90.77L283.25+90.78Z" opacity="1" fill="#d0a913"/>
<path d="M257.48+94.95C257.53+94.98+257.57+95.01+257.62+95.03L257.62+94.97C257.59+94.98+257.53+94.96+257.48+94.95Z" opacity="0.2" fill="#d0a913"/>
<path d="M258.55+95.44L258.43+95.44C258.67+95.56+258.92+95.68+259.17+95.8L259.17+95.76C259.07+95.75+258.86+95.65+258.55+95.44Z" opacity="0.2" fill="#d0a913"/>
<path d="M247.06+78.51L247.06+74.47C247.02+74.42+246.99+74.38+246.96+74.34C246.87+75.13+246.81+75.94+246.81+76.76C246.81+78.07+246.95+79.34+247.18+80.58L247.22+80.54L247.06+78.51Z" opacity="0.2" fill="#d0a913"/>
<path d="M272.22+56.45C272.23+56.44+272.24+56.42+272.25+56.41C271.68+56.28+271.1+56.18+270.51+56.1C270.56+56.16+270.61+56.23+270.67+56.29C271.6+56.4+272.12+56.45+272.22+56.45Z" opacity="0.2" fill="#d0a913"/>
<path d="M281.23+83.79L281.08+83.79C282.32+86.69+282.94+88.81+282.94+90.16L282.94+90.78L283.08+90.78C283.24+90.6+283.41+90.43+283.56+90.25L283.56+90C283.56+87.73+282.79+85.66+281.23+83.79Z" opacity="1" fill="#d0a913"/>
<path d="M281.23+83.79L281.08+83.79C282.32+86.69+282.94+88.81+282.94+90.16L282.94+90.78L283.08+90.78C283.24+90.6+283.41+90.43+283.56+90.25L283.56+90C283.56+87.73+282.79+85.66+281.23+83.79Z" opacity="0.2" fill="#d0a913"/>
<path d="M257.48+94.95C257.53+94.96+257.59+94.97+257.62+94.97L257.62+95.03C257.89+95.18+258.16+95.3+258.43+95.44L258.55+95.44C258.86+95.65+259.07+95.75+259.17+95.75L259.17+95.79C261.77+96.95+264.64+97.61+267.66+97.61C273.45+97.61+278.69+95.25+282.47+91.44L282.47+90.62C282.16+88.65+280.97+86.37+278.9+83.79C275.17+90.21+271.29+94.3+267.25+96.06C267.04+95.65+266.89+95.44+266.78+95.44C271.65+91.92+274.86+88.19+276.41+84.26C276.41+84.16+276.36+84+276.25+83.79C275.84+84+275.63+84.15+275.63+84.26C273.25+88.82+270.09+92.39+266.15+94.98L265.99+94.98L264.59+94.83L264.59+94.36C264.9+94.36+265.62+93.84+266.76+92.81C270.38+89.39+272.87+86.24+274.22+83.33L273.91+83.17L273.76+83.17C273.55+83.17+272.98+83.95+272.05+85.5C269.77+89.02+267.03+91.87+263.82+94.04C263.61+93.73+263.35+93.57+263.04+93.57L263.04+93.26C267.7+88.91+270.6+85.13+271.74+81.92L271.59+81.92L270.81+82.54C269.26+85.86+266.51+89.22+262.58+92.64L262.43+92.64L261.65+92.02C266.83+86.53+270.14+81.61+271.59+77.26C271.59+77.05+271.28+76.69+270.66+76.17C264.45+72.24+259.22+70.11+254.97+69.8L254.97+69.33L255.59+68.4C258.7+68.4+262.16+69.28+266+71.04C266.21+71.04+266.31+70.94+266.31+70.73C266.1+70.21+264.14+69.33+260.41+68.09C257.3+67.68+255.75+67.37+255.75+67.16C256.06+66.75+256.22+66.49+256.22+66.38L256.22+66.07C259.64+66.07+263.26+66.9+267.09+68.55C267.5+68.55+267.71+68.45+267.71+68.24C266.36+67+262.74+65.91+256.84+64.98C257.25+64.57+257.46+64.15+257.46+63.74L257.77+63.74C261.19+63.84+264.81+64.72+268.64+66.38C268.85+66.38+268.95+66.22+268.95+65.91L268.95+65.6C264.39+63.84+260.87+62.96+258.39+62.96L258.39+62.65C258.6+62.24+258.7+61.87+258.7+61.56L259.01+61.56C259.32+61.56+259.53+61.61+259.63+61.72L260.1+61.56C264.03+61.56+268.85+63.27+274.54+66.69L274.85+66.69C274.95+64.2+275.06+62.55+275.16+61.72C275.16+59.96+274.85+58.46+274.23+57.22C275.88+57.22+276.72+59.39+276.72+63.74L277.19+63.74C277.19+63.22+277.24+62.86+277.34+62.65C277.23+60.68+276.93+59.23+276.41+58.3L276.41+57.99C277.55+57.99+278.27+60.11+278.58+64.36L278.89+64.36C278.89+64.26+278.94+64.1+279.04+63.89C279.04+62.13+278.73+60.47+278.11+58.92C279.35+58.92+280.08+60.68+280.28+64.2L280.28+65C280.28+65.31+280.43+65.47+280.75+65.47L281.06+65.47C281.06+63.81+280.7+62.11+279.97+60.34L279.97+60.03L280.08+60.03C277.78+58.32+275.13+57.07+272.24+56.42C272.23+56.43+272.22+56.45+272.21+56.46C272.1+56.46+271.59+56.41+270.66+56.31C270.61+56.25+270.56+56.18+270.5+56.12C269.57+55.99+268.62+55.9+267.66+55.9C256.96+55.9+248.15+63.97+246.95+74.35C246.99+74.4+247.02+74.44+247.05+74.48L247.05+78.52L247.2+80.54L247.16+80.58C248.32+86.76+252.18+91.98+257.48+94.95Z" opacity="1" fill="#d0a913"/>
<path d="M280.72+60.49C281.79+61.6+282.38+63.87+282.47+67.32C282.47+68.56+282.32+70.69+282+73.69C285.21+78.04+286.81+81.77+286.81+84.87L286.77+85.08C287.89+82.53+288.51+79.71+288.51+76.74C288.53+70.18+285.48+64.32+280.72+60.49Z" opacity="1" fill="#d0a913"/>
<path d="M283.56+79.75L283.56+79.9C284.9+82.49+285.58+84.77+285.58+86.74L285.58+87.36L285.61+87.36C285.81+87.03+286+86.69+286.18+86.34C286.13+84.13+285.37+81.83+283.87+79.43C283.77+79.44+283.66+79.55+283.56+79.75Z" opacity="1" fill="#d0a913"/>
<path d="M283.56+79.75L283.56+79.9C284.9+82.49+285.58+84.77+285.58+86.74L285.58+87.36L285.61+87.36C285.81+87.03+286+86.69+286.18+86.34C286.13+84.13+285.37+81.83+283.87+79.43C283.77+79.44+283.66+79.55+283.56+79.75Z" opacity="0.2" fill="#d0a913"/>
<path d="M282.79+81.93L282.63+81.93L282.63+82.24C283.87+85.56+284.49+87.78+284.49+88.92C284.38+88.92+284.33+88.97+284.33+89.08L284.33+89.23L284.36+89.23C284.56+88.96+284.77+88.71+284.96+88.43L284.96+87.52C284.96+85.76+284.23+83.9+282.79+81.93Z" opacity="1" fill="#d0a913"/>
<path d="M282.79+81.93L282.63+81.93L282.63+82.24C283.87+85.56+284.49+87.78+284.49+88.92C284.38+88.92+284.33+88.97+284.33+89.08L284.33+89.23L284.36+89.23C284.56+88.96+284.77+88.71+284.96+88.43L284.96+87.52C284.96+85.76+284.23+83.9+282.79+81.93Z" opacity="0.2" fill="#d0a913"/>
</g>
<g opacity="1">
<path d="M528.32+97.89L528.32+98.05C528.01+98.05+527.29+98.31+526.15+98.83L525.99+98.83L525.99+98.67L528.17+97.89L528.32+97.89Z" opacity="1" fill="#d0a913"/>
<path d="M525.83+98.82L525.83+98.97C525.52+98.97+524.95+99.13+524.12+99.44L523.97+99.44L523.97+99.28C524.7+98.97+525.11+98.81+525.21+98.81L525.83+98.81L525.83+98.82Z" opacity="1" fill="#d0a913"/>
<path d="M530.8+96.65L530.95+96.65L530.95+96.8C530.85+96.8+530.59+96.9+530.17+97.11L530.17+96.86C530.22+96.83+530.26+96.8+530.31+96.78C530.43+96.76+530.58+96.72+530.8+96.65Z" opacity="1" fill="#d0a913"/>
<path d="M529.4+97.27L529.4+97.58C529.19+97.58+528.99+97.63+528.78+97.74L528.63+97.74L528.63+97.63C528.88+97.52+529.12+97.4+529.37+97.27C529.37+97.27+529.4+97.27+529.4+97.27Z" opacity="1" fill="#d0a913"/>
<path d="M507.66+61.86L507.71+61.86C507.5+62.02+507.29+62.16+507.08+62.33C507.26+62.14+507.45+61.97+507.66+61.86Z" opacity="1" fill="#d0a913"/>
<path d="M499.11+75.06L499.27+75.06L499.27+75.06L499.27+75.68L499.27+75.68L499.11+75.68L499.11+75.68L499.11+75.06L499.11+75.06Z" opacity="1" fill="#d0a913"/>
<path d="M501.75+89.19L501.59+88.41C501.59+88.33+501.61+88.25+501.61+88.17C501.79+88.52+501.99+88.85+502.18+89.19C502.18+89.19+501.75+89.19+501.75+89.19Z" opacity="1" fill="#d0a913"/>
<path d="M503.31+91.06C503+91.06+502.84+90.96+502.84+90.75L502.84+90.26C503.03+90.54+503.24+90.79+503.44+91.06L503.31+91.06Z" opacity="1" fill="#d0a913"/>
<path d="M504.55+92.61C504.34+92.61+504.24+92.45+504.24+92.14L504.24+92.07C504.4+92.25+504.56+92.42+504.72+92.6L504.55+92.6L504.55+92.61Z" opacity="1" fill="#d0a913"/>
<path d="M530.32+96.78C530.27+96.81+530.23+96.84+530.18+96.86L530.18+96.8C530.21+96.81+530.27+96.79+530.32+96.78Z" opacity="0.2" fill="#d0a913"/>
<path d="M529.25+97.27L529.37+97.27C529.13+97.39+528.88+97.51+528.63+97.63L528.63+97.59C528.73+97.58+528.94+97.48+529.25+97.27Z" opacity="0.2" fill="#d0a913"/>
<path d="M540.74+80.34L540.74+76.3C540.78+76.25+540.81+76.21+540.84+76.17C540.93+76.96+540.99+77.77+540.99+78.59C540.99+79.9+540.85+81.17+540.62+82.41L540.58+82.37L540.74+80.34Z" opacity="0.2" fill="#d0a913"/>
<path d="M515.58+58.28C515.57+58.27+515.56+58.25+515.55+58.24C516.12+58.11+516.7+58.01+517.29+57.93C517.24+57.99+517.19+58.06+517.13+58.12C516.2+58.23+515.68+58.28+515.58+58.28Z" opacity="0.2" fill="#d0a913"/>
<path d="M506.57+85.62L506.72+85.62C505.48+88.52+504.86+90.64+504.86+91.99L504.86+92.61L504.72+92.61C504.56+92.43+504.39+92.26+504.24+92.08L504.24+91.83C504.24+89.56+505.01+87.48+506.57+85.62Z" opacity="1" fill="#d0a913"/>
<path d="M506.57+85.62L506.72+85.62C505.48+88.52+504.86+90.64+504.86+91.99L504.86+92.61L504.72+92.61C504.56+92.43+504.39+92.26+504.24+92.08L504.24+91.83C504.24+89.56+505.01+87.48+506.57+85.62Z" opacity="0.2" fill="#d0a913"/>
<path d="M530.32+96.78C530.27+96.79+530.21+96.8+530.18+96.8L530.18+96.86C529.91+97.01+529.64+97.13+529.37+97.27L529.25+97.27C528.94+97.48+528.73+97.58+528.63+97.58L528.63+97.62C526.03+98.78+523.16+99.44+520.14+99.44C514.35+99.44+509.11+97.08+505.33+93.27L505.33+92.45C505.64+90.48+506.83+88.2+508.9+85.62C512.63+92.04+516.51+96.13+520.55+97.89C520.76+97.48+520.91+97.27+521.02+97.27C516.15+93.75+512.94+90.02+511.39+86.09C511.39+85.99+511.44+85.83+511.55+85.62C511.96+85.83+512.17+85.98+512.17+86.09C514.55+90.65+517.71+94.22+521.65+96.81L521.81+96.81L523.21+96.66L523.21+96.19C522.9+96.19+522.18+95.67+521.04+94.64C517.42+91.22+514.93+88.07+513.58+85.16L513.89+85L514.04+85C514.25+85+514.82+85.78+515.75+87.33C518.03+90.85+520.77+93.7+523.98+95.87C524.19+95.56+524.45+95.4+524.76+95.4L524.76+95.1C520.1+90.75+517.2+86.97+516.06+83.76L516.21+83.76L516.99+84.38C518.54+87.7+521.29+91.06+525.22+94.48L525.37+94.48L526.15+93.86C520.97+88.37+517.66+83.45+516.21+79.1C516.21+78.89+516.52+78.53+517.14+78.01C523.35+74.08+528.58+71.95+532.83+71.64L532.83+71.17L532.21+70.24C529.1+70.24+525.64+71.12+521.8+72.88C521.59+72.88+521.49+72.78+521.49+72.57C521.7+72.05+523.66+71.17+527.39+69.93C530.5+69.52+532.05+69.21+532.05+69C531.74+68.59+531.58+68.33+531.58+68.22L531.58+67.91C528.16+67.91+524.54+68.74+520.71+70.39C520.3+70.39+520.09+70.29+520.09+70.08C521.44+68.84+525.06+67.75+530.96+66.82C530.55+66.41+530.34+65.99+530.34+65.58L530.03+65.58C526.61+65.68+522.99+66.56+519.16+68.22C518.95+68.22+518.85+68.06+518.85+67.75L518.85+67.44C523.41+65.68+526.93+64.8+529.41+64.8L529.41+64.5C529.2+64.09+529.1+63.72+529.1+63.41L528.79+63.41C528.48+63.41+528.27+63.46+528.17+63.57L527.7+63.41C523.77+63.41+518.95+65.12+513.26+68.54L512.95+68.54C512.85+66.05+512.74+64.4+512.64+63.57C512.64+61.81+512.95+60.31+513.57+59.07C511.92+59.07+511.08+61.24+511.08+65.59L510.61+65.59C510.61+65.07+510.56+64.71+510.46+64.5C510.56+62.53+510.87+61.08+511.39+60.15L511.39+59.84C510.25+59.84+509.53+61.96+509.22+66.21L508.91+66.21C508.91+66.11+508.86+65.95+508.76+65.74C508.76+63.98+509.07+62.32+509.69+60.77C508.45+60.77+507.72+62.53+507.52+66.05L507.52+66.83C507.52+67.14+507.37+67.3+507.05+67.3L506.74+67.3C506.74+65.64+507.1+63.94+507.83+62.17L507.83+61.86L507.72+61.86C510.02+60.15+512.67+58.9+515.56+58.25C515.57+58.26+515.58+58.28+515.59+58.29C515.69+58.29+516.21+58.24+517.14+58.14C517.19+58.08+517.24+58.01+517.3+57.95C518.23+57.82+519.18+57.73+520.14+57.73C530.84+57.73+539.65+65.8+540.85+76.18C540.81+76.23+540.78+76.27+540.75+76.31L540.75+80.35L540.6+82.37L540.64+82.41C539.48+88.59+535.62+93.81+530.32+96.78Z" opacity="1" fill="#d0a913"/>
<path d="M507.08+62.32C506.01+63.43+505.42+65.7+505.33+69.15C505.33+70.39+505.48+72.52+505.8+75.52C502.59+79.87+500.99+83.6+500.99+86.7L501.03+86.91C499.91+84.36+499.29+81.54+499.29+78.57C499.27+72+502.32+66.15+507.08+62.32Z" opacity="1" fill="#d0a913"/>
<path d="M504.24+81.58L504.24+81.73C502.9+84.32+502.22+86.6+502.22+88.57L502.22+89.19L502.19+89.19C501.99+88.86+501.8+88.52+501.62+88.17C501.67+85.96+502.43+83.66+503.93+81.26C504.03+81.27+504.14+81.38+504.24+81.58Z" opacity="1" fill="#d0a913"/>
<path d="M504.24+81.58L504.24+81.73C502.9+84.32+502.22+86.6+502.22+88.57L502.22+89.19L502.19+89.19C501.99+88.86+501.8+88.52+501.62+88.17C501.67+85.96+502.43+83.66+503.93+81.26C504.03+81.27+504.14+81.38+504.24+81.58Z" opacity="0.2" fill="#d0a913"/>
<path d="M505.01+83.76L505.17+83.76L505.17+84.07C503.93+87.39+503.31+89.61+503.31+90.75C503.41+90.75+503.47+90.8+503.47+90.91L503.47+91.06L503.44+91.06C503.24+90.79+503.03+90.54+502.84+90.26L502.84+89.35C502.84+87.59+503.57+85.73+505.01+83.76Z" opacity="1" fill="#d0a913"/>
<path d="M505.01+83.76L505.17+83.76L505.17+84.07C503.93+87.39+503.31+89.61+503.31+90.75C503.41+90.75+503.47+90.8+503.47+90.91L503.47+91.06L503.44+91.06C503.24+90.79+503.03+90.54+502.84+90.26L502.84+89.35C502.84+87.59+503.57+85.73+505.01+83.76Z" opacity="0.2" fill="#d0a913"/>
</g>
<g opacity="1">
<path d="M441.2+143.74L441.2+143.86C441.44+143.86+441.98+144.06+442.85+144.45L442.97+144.45L442.97+144.33L441.32+143.74L441.2+143.74Z" opacity="1" fill="#d0a913"/>
<path d="M443.08+144.45L443.08+144.57C443.32+144.57+443.74+144.69+444.37+144.92L444.49+144.92L444.49+144.8C443.94+144.56+443.63+144.45+443.55+144.45L443.08+144.45Z" opacity="1" fill="#d0a913"/>
<path d="M439.32+142.8L439.2+142.8L439.2+142.92C439.28+142.92+439.47+143+439.79+143.16L439.79+142.97C439.75+142.95+439.72+142.93+439.69+142.91C439.6+142.89+439.48+142.86+439.32+142.8Z" opacity="1" fill="#d0a913"/>
<path d="M440.38+143.27L440.38+143.51C440.54+143.51+440.69+143.55+440.85+143.63L440.97+143.63L440.97+143.55C440.78+143.47+440.6+143.37+440.41+143.28L440.38+143.28L440.38+143.27Z" opacity="1" fill="#d0a913"/>
<path d="M456.83+116.48L456.8+116.48C456.96+116.6+457.12+116.71+457.27+116.83C457.13+116.69+456.99+116.57+456.83+116.48Z" opacity="1" fill="#d0a913"/>
<path d="M463.17+126.47L463.29+126.47L463.29+126.47L463.29+126.94L463.29+126.94L463.17+126.94L463.17+126.94L463.17+126.47L463.17+126.47Z" opacity="1" fill="#d0a913"/>
<path d="M461.29+137.16L461.41+136.57C461.41+136.51+461.4+136.45+461.39+136.39C461.25+136.65+461.11+136.91+460.96+137.16L461.29+137.16Z" opacity="1" fill="#d0a913"/>
<path d="M460.12+138.57C460.36+138.57+460.47+138.49+460.47+138.34L460.47+137.97C460.33+138.18+460.17+138.37+460.02+138.57C460.02+138.57+460.12+138.57+460.12+138.57Z" opacity="1" fill="#d0a913"/>
<path d="M459.18+139.75C459.34+139.75+459.42+139.63+459.42+139.4L459.42+139.35C459.3+139.49+459.18+139.62+459.05+139.75C459.05+139.75+459.18+139.75+459.18+139.75Z" opacity="1" fill="#d0a913"/>
<path d="M439.68+142.9C439.72+142.92+439.75+142.94+439.78+142.96L439.78+142.91C439.76+142.92+439.72+142.91+439.68+142.9Z" opacity="0.2" fill="#d0a913"/>
<path d="M440.49+143.27L440.4+143.27C440.59+143.36+440.77+143.45+440.96+143.54L440.96+143.51C440.88+143.51+440.73+143.43+440.49+143.27Z" opacity="0.2" fill="#d0a913"/>
<path d="M431.8+130.46L431.8+127.4C431.77+127.37+431.75+127.33+431.72+127.3C431.65+127.9+431.61+128.51+431.61+129.13C431.61+130.12+431.71+131.08+431.89+132.02L431.92+131.99L431.8+130.46Z" opacity="0.2" fill="#d0a913"/>
<path d="M450.83+113.78C450.84+113.77+450.85+113.76+450.86+113.75C450.43+113.65+449.99+113.58+449.54+113.52C449.58+113.57+449.62+113.62+449.66+113.67C450.36+113.74+450.75+113.78+450.83+113.78Z" opacity="0.2" fill="#d0a913"/>
<path d="M457.65+134.46L457.53+134.46C458.47+136.65+458.94+138.26+458.94+139.28L458.94+139.75L459.05+139.75C459.17+139.62+459.3+139.49+459.42+139.35L459.42+139.16C459.41+137.44+458.82+135.87+457.65+134.46Z" opacity="1" fill="#d0a913"/>
<path d="M457.65+134.46L457.53+134.46C458.47+136.65+458.94+138.26+458.94+139.28L458.94+139.75L459.05+139.75C459.17+139.62+459.3+139.49+459.42+139.35L459.42+139.16C459.41+137.44+458.82+135.87+457.65+134.46Z" opacity="0.2" fill="#d0a913"/>
<path d="M439.68+142.9C439.72+142.91+439.76+142.92+439.78+142.92L439.78+142.97C439.98+143.08+440.19+143.17+440.4+143.28L440.49+143.28C440.73+143.44+440.88+143.52+440.96+143.52L440.96+143.55C442.92+144.43+445.1+144.93+447.39+144.93C451.77+144.93+455.73+143.14+458.59+140.26L458.59+139.64C458.35+138.15+457.45+136.43+455.89+134.47C453.07+139.33+450.13+142.42+447.08+143.75C446.92+143.44+446.81+143.28+446.73+143.28C450.41+140.62+452.84+137.8+454.02+134.82C454.02+134.74+453.98+134.63+453.9+134.47C453.59+134.63+453.43+134.75+453.43+134.82C451.63+138.27+449.24+140.97+446.26+142.93L446.14+142.93L445.08+142.81L445.08+142.46C445.32+142.46+445.86+142.07+446.73+141.29C449.47+138.7+451.35+136.32+452.37+134.12L452.13+134L452.01+134C451.85+134+451.42+134.59+450.72+135.76C449+138.42+446.92+140.58+444.49+142.22C444.33+141.98+444.14+141.87+443.9+141.87L443.9+141.63C447.43+138.34+449.62+135.48+450.48+133.05L450.36+133.05L449.77+133.52C448.59+136.03+446.52+138.57+443.54+141.16L443.42+141.16L442.83+140.69C446.75+136.54+449.25+132.82+450.35+129.53C450.35+129.37+450.11+129.1+449.64+128.71C444.94+125.73+440.98+124.13+437.77+123.89L437.77+123.54L438.24+122.84C440.59+122.84+443.21+123.51+446.11+124.84C446.27+124.84+446.35+124.76+446.35+124.6C446.19+124.21+444.7+123.54+441.88+122.6C439.53+122.29+438.35+122.05+438.35+121.9C438.59+121.59+438.7+121.39+438.7+121.31L438.7+121.08C441.29+121.08+444.03+121.71+446.93+122.96C447.24+122.96+447.4+122.88+447.4+122.73C446.38+121.79+443.64+120.97+439.17+120.26C439.48+119.95+439.64+119.63+439.64+119.32L439.88+119.32C442.47+119.4+445.21+120.07+448.11+121.32C448.27+121.32+448.34+121.2+448.34+120.97L448.34+120.73C444.89+119.4+442.23+118.73+440.35+118.73L440.35+118.5C440.51+118.19+440.58+117.91+440.58+117.68L440.82+117.68C441.06+117.68+441.21+117.72+441.29+117.8L441.64+117.68C444.62+117.68+448.26+118.97+452.57+121.56L452.81+121.56C452.89+119.68+452.97+118.43+453.05+117.8C453.05+116.47+452.81+115.33+452.35+114.39C453.6+114.39+454.23+116.04+454.23+119.33L454.58+119.33C454.58+118.94+454.62+118.67+454.7+118.51C454.62+117.02+454.39+115.92+454+115.22L454+114.99C454.86+114.99+455.41+116.6+455.65+119.81L455.89+119.81C455.89+119.73+455.93+119.61+456.01+119.46C456.01+118.13+455.77+116.87+455.31+115.7C456.25+115.7+456.8+117.03+456.96+119.7L456.96+120.29C456.96+120.53+457.08+120.64+457.31+120.64L457.55+120.64C457.55+119.39+457.27+118.09+456.73+116.76L456.73+116.52L456.81+116.52C455.07+115.23+453.06+114.28+450.88+113.79C450.87+113.8+450.86+113.81+450.85+113.82C450.77+113.82+450.38+113.78+449.67+113.7C449.63+113.65+449.59+113.6+449.55+113.55C448.84+113.45+448.13+113.39+447.4+113.39C439.3+113.39+432.64+119.49+431.73+127.35C431.76+127.38+431.78+127.42+431.81+127.45L431.81+130.51L431.93+132.04L431.9+132.07C432.75+136.7+435.67+140.65+439.68+142.9Z" opacity="1" fill="#d0a913"/>
<path d="M457.27+116.83C458.08+117.67+458.53+119.38+458.59+122C458.59+122.94+458.47+124.55+458.24+126.82C460.67+130.11+461.88+132.93+461.88+135.28L461.85+135.44C462.69+133.51+463.17+131.38+463.17+129.13C463.17+124.16+460.86+119.72+457.27+116.83Z" opacity="1" fill="#d0a913"/>
<path d="M459.41+131.4L459.41+131.52C460.43+133.48+460.94+135.2+460.94+136.69L460.94+137.16L460.96+137.16C461.11+136.91+461.26+136.65+461.39+136.39C461.35+134.72+460.78+132.98+459.64+131.17C459.57+131.17+459.49+131.25+459.41+131.4Z" opacity="1" fill="#d0a913"/>
<path d="M459.41+131.4L459.41+131.52C460.43+133.48+460.94+135.2+460.94+136.69L460.94+137.16L460.96+137.16C461.11+136.91+461.26+136.65+461.39+136.39C461.35+134.72+460.78+132.98+459.64+131.17C459.57+131.17+459.49+131.25+459.41+131.4Z" opacity="0.2" fill="#d0a913"/>
<path d="M458.82+133.05L458.7+133.05L458.7+133.28C459.64+135.79+460.11+137.47+460.11+138.33C460.03+138.33+459.99+138.37+459.99+138.45L459.99+138.57L460.01+138.57C460.16+138.37+460.32+138.17+460.46+137.97L460.46+137.28C460.47+135.95+459.92+134.54+458.82+133.05Z" opacity="1" fill="#d0a913"/>
<path d="M458.82+133.05L458.7+133.05L458.7+133.28C459.64+135.79+460.11+137.47+460.11+138.33C460.03+138.33+459.99+138.37+459.99+138.45L459.99+138.57L460.01+138.57C460.16+138.37+460.32+138.17+460.46+137.97L460.46+137.28C460.47+135.95+459.92+134.54+458.82+133.05Z" opacity="0.2" fill="#d0a913"/>
</g>
<path d="M111.88+103.98C111.89+104+111.91+104.01+111.92+104.03C111.91+104.01+111.9+104+111.88+103.98Z" opacity="1" fill="#040000"/>
<path d="M92.54+109.26C92.95+105.7+95.1+102.68+98.11+101.04C98.14+101.03+98.16+101.01+98.19+101C98.43+100.87+98.68+100.75+98.93+100.64C99.01+100.6+99.09+100.56+99.18+100.53C99.36+100.46+99.55+100.39+99.74+100.33C99.9+100.27+100.05+100.22+100.21+100.17C100.29+100.15+100.37+100.13+100.45+100.11C101.36+99.86+102.31+99.72+103.3+99.72C104.17+99.72+105+99.83+105.81+100.03C104.08+99.54+102.1+99.29+99.85+99.29C99.85+99.29+87.44+99.06+87.14+98.6L87.14+98.48C87.14+98.48+105.79+45.62+107.25+39.76L106.44+39.41C106.21+39.57+105.98+39.64+105.75+39.64L87.6+39.64C83.44+50.97+41.02+170.33+39.4+174.65C39.4+174.96+39.52+175.11+39.75+175.11L59.4+175.11C59.57+175.11+82.92+110.73+83.1+110.73L92.35+110.73L92.48+110.69C92.48+110.64+92.47+110.58+92.47+110.53C92.46+110.09+92.49+109.67+92.54+109.26Z" opacity="1" fill="#040000"/>
<path d="M110.63+102.6C110.67+102.63+110.7+102.66+110.74+102.7C110.7+102.66+110.67+102.63+110.63+102.6Z" opacity="1" fill="#040000"/>
<path d="M113.37+106.66C113.64+107.36+113.83+108.09+113.95+108.85C113.84+107.91+113.65+107.18+113.37+106.66Z" opacity="1" fill="#040000"/>
<path d="M111.21+103.18C111.28+103.25+111.34+103.32+111.41+103.4C111.34+103.32+111.28+103.25+111.21+103.18Z" opacity="1" fill="#040000"/>
<path d="M112.18+116.8C112.18+116.91+112.1+116.96+111.94+116.96L111.93+116.96C111.77+117.17+111.61+117.37+111.44+117.57C111.43+117.69+111.38+117.77+111.29+117.77L111.26+117.77C109.29+119.94+106.45+121.3+103.29+121.3C103.28+121.3+103.27+121.3+103.26+121.3C103.25+121.3+103.24+121.3+103.23+121.3C102.96+121.3+102.69+121.28+102.43+121.26C102.35+121.25+102.26+121.25+102.18+121.25C101+121.13+99.88+120.83+98.84+120.37L98.84+120.43L98.76+120.43C98.65+120.38+98.55+120.35+98.44+120.35L98.44+120.19L98.46+120.19C98.32+120.12+98.18+120.06+98.04+119.98L98.04+120.11C97.83+120+97.69+119.95+97.64+119.95L97.64+119.87L97.72+119.87C97.83+119.91+97.91+119.93+97.97+119.94C95.5+118.56+93.65+116.23+92.87+113.45C88.01+126.93+70.92+174.7+70.83+175.13C70.98+175.13+71.21+175.21+71.52+175.36C80.77+175.21+86.32+175.13+88.17+175.13C88.55+175.13+89.67+175.21+91.52+175.36C91.52+175.21+91.71+175.01+92.1+174.78C92.69+173.06+97.67+158.95+102.75+144.45C106.58+133.51+110.45+122.35+112.53+116.1C112.42+116.29+112.3+116.48+112.18+116.66C112.18+116.66+112.18+116.8+112.18+116.8ZM100.22+120.97L100.14+120.97C99.55+120.7+99.18+120.57+99.02+120.57L99.02+120.49L99.1+120.49L100.22+120.89L100.22+120.97ZM101.26+121.29L101.18+121.29C100.75+121.13+100.46+121.05+100.3+121.05L100.3+120.97L100.62+120.97C100.67+120.97+100.89+121.05+101.26+121.21C101.26+121.21+101.26+121.29+101.26+121.29Z" opacity="1" fill="#040000"/>
<path d="M114.07+111.06C114.07+111.05+114.07+111.04+114.07+111.03C114.07+111.05+114.07+111.07+114.07+111.09C114.06+111.08+114.07+111.07+114.07+111.06Z" opacity="1" fill="#040000"/>
<path d="M99.01+120.49L99.01+120.57C99.17+120.57+99.54+120.7+100.13+120.97L100.21+120.97L100.21+120.89L99.09+120.49L99.01+120.49Z" opacity="1" fill="#d0a913"/>
<path d="M100.3+120.97L100.3+121.05C100.46+121.05+100.75+121.13+101.18+121.29L101.26+121.29L101.26+121.21C100.88+121.05+100.67+120.97+100.62+120.97L100.3+120.97Z" opacity="1" fill="#d0a913"/>
<path d="M97.73+119.85L97.65+119.85L97.65+119.93C97.7+119.93+97.84+119.98+98.05+120.09L98.05+119.96C98.03+119.95+98+119.93+97.98+119.92C97.92+119.91+97.84+119.89+97.73+119.85Z" opacity="1" fill="#d0a913"/>
<path d="M98.45+120.17L98.45+120.33C98.56+120.33+98.66+120.36+98.77+120.41L98.85+120.41L98.85+120.35C98.72+120.29+98.59+120.23+98.47+120.17C98.47+120.17+98.45+120.17+98.45+120.17Z" opacity="1" fill="#d0a913"/>
<path d="M114.02+108.69L114.1+108.69L114.1+108.69L114.1+109.01L114.1+109.01L114.02+109.01L114.02+109.01L114.02+108.69L114.02+108.69Z" opacity="1" fill="#d0a913"/>
<path d="M112.74+116L112.82+115.6L112.82+115.59C112.74+115.73+112.66+115.87+112.58+116C112.58+116+112.74+116+112.74+116Z" opacity="1" fill="#d0a913"/>
<path d="M112.18+116.8L112.18+116.63C112.1+116.74+112.02+116.85+111.93+116.96L111.94+116.96C112.1+116.96+112.18+116.91+112.18+116.8Z" opacity="1" fill="#d0a913"/>
<path d="M111.45+117.57C111.39+117.64+111.33+117.7+111.27+117.77L111.3+117.77C111.39+117.76+111.43+117.69+111.45+117.57Z" opacity="1" fill="#d0a913"/>
<path d="M97.98+119.92C98+119.93+98.03+119.95+98.05+119.96L98.05+119.93C98.03+119.93+98+119.92+97.98+119.92Z" opacity="1" fill="#040000"/>
<path d="M97.98+119.92C98+119.93+98.03+119.95+98.05+119.96L98.05+119.93C98.03+119.93+98+119.92+97.98+119.92Z" opacity="0.2" fill="#d0a913"/>
<path d="M98.55+120.18C98.54+120.18+98.53+120.17+98.52+120.17L98.47+120.17C98.6+120.23+98.72+120.3+98.85+120.35L98.85+120.33C98.8+120.33+98.7+120.28+98.55+120.18Z" opacity="1" fill="#040000"/>
<path d="M98.55+120.18C98.54+120.18+98.53+120.17+98.52+120.17L98.47+120.17C98.6+120.23+98.72+120.3+98.85+120.35L98.85+120.33C98.8+120.33+98.7+120.28+98.55+120.18Z" opacity="0.2" fill="#d0a913"/>
<path d="M92.65+112.16C92.57+111.67+92.52+111.17+92.52+110.66L92.47+110.68C92.48+111.3+92.54+111.9+92.65+112.49L92.67+112.47L92.65+112.16Z" opacity="0.2" fill="#d0a913"/>
<path d="M92.51+110.5C92.51+110.1+92.54+109.7+92.58+109.31C92.57+109.29+92.55+109.28+92.54+109.26C92.49+109.67+92.46+110.09+92.46+110.51C92.46+110.56+92.47+110.62+92.47+110.67L92.52+110.65C92.51+110.6+92.51+110.55+92.51+110.5Z" opacity="1" fill="#040000"/>
<path d="M92.51+110.5C92.51+110.1+92.54+109.7+92.58+109.31C92.57+109.29+92.55+109.28+92.54+109.26C92.49+109.67+92.46+110.09+92.46+110.51C92.46+110.56+92.47+110.62+92.47+110.67L92.52+110.65C92.51+110.6+92.51+110.55+92.51+110.5Z" opacity="0.2" fill="#d0a913"/>
<path d="M92.65+112.16L92.67+112.46L92.65+112.48C92.71+112.8+92.79+113.11+92.88+113.42C92.89+113.4+92.9+113.38+92.9+113.35C92.79+112.97+92.71+112.57+92.65+112.16Z" opacity="1" fill="#d0a913"/>
<path d="M103.24+121.29C103.25+121.29+103.26+121.29+103.27+121.29C102.99+121.29+102.71+121.27+102.44+121.25C102.7+121.27+102.97+121.29+103.24+121.29Z" opacity="1" fill="#d0a913"/>
<path d="M97.98+119.92C98+119.92+98.03+119.93+98.05+119.93L98.05+119.96C98.19+120.04+98.33+120.1+98.47+120.17L98.52+120.17C95.79+118.82+93.72+116.35+92.9+113.36C92.89+113.38+92.88+113.4+92.88+113.43C93.66+116.21+95.51+118.53+97.98+119.92Z" opacity="1" fill="#d0a913"/>
<path d="M98.85+120.33L98.85+120.35C99.89+120.81+101.01+121.12+102.19+121.23C100.9+121.1+99.67+120.73+98.56+120.18C98.7+120.28+98.8+120.33+98.85+120.33Z" opacity="1" fill="#d0a913"/>
<path d="M113.95+108.85C114.02+109.48+114.06+110.21+114.06+111.04C114.07+110.86+114.09+110.69+114.09+110.51C114.09+109.94+114.04+109.39+113.95+108.85Z" opacity="0.35" fill="#d71718"/>
<path d="M112.53+116.07C112.55+116.04+112.56+116.02+112.58+115.99L112.56+115.99C112.55+116.02+112.54+116.05+112.53+116.07Z" opacity="0.35" fill="#d71718"/>
<path d="M111.41+103.4C111.57+103.59+111.73+103.78+111.88+103.98C111.73+103.78+111.57+103.58+111.41+103.4Z" opacity="0.35" fill="#d71718"/>
<path d="M113.37+106.66C113.01+105.71+112.52+104.83+111.92+104.03C112.45+104.75+112.9+105.55+113.26+106.44C113.3+106.51+113.34+106.58+113.37+106.66Z" opacity="0.35" fill="#d71718"/>
<path d="M110.74+102.7C110.9+102.85+111.06+103.02+111.21+103.18C111.06+103.01+110.9+102.85+110.74+102.7Z" opacity="0.35" fill="#d71718"/>
<path d="M105.81+100.01C107.75+100.56+109.35+101.42+110.63+102.59C109.29+101.36+107.65+100.45+105.81+100.01Z" opacity="0.35" fill="#d71718"/>
<path d="M102.44+121.25C102.36+121.24+102.27+121.24+102.19+121.24C102.27+121.25+102.36+121.24+102.44+121.25Z" opacity="1" fill="#040000"/>
<path d="M102.44+121.25C102.36+121.24+102.27+121.24+102.19+121.24C102.27+121.25+102.36+121.24+102.44+121.25Z" opacity="0.35" fill="#d71718"/>
<path d="M113.37+106.66C113.33+106.59+113.29+106.51+113.25+106.44C112.89+105.55+112.45+104.75+111.91+104.03C111.9+104.01+111.88+104+111.87+103.98C111.72+103.78+111.56+103.59+111.4+103.4C111.33+103.33+111.27+103.25+111.2+103.18C111.05+103.02+110.89+102.85+110.73+102.7C110.7+102.67+110.66+102.64+110.62+102.6C109.34+101.43+107.73+100.57+105.8+100.02C104.99+99.83+104.16+99.71+103.29+99.71C102.3+99.71+101.35+99.85+100.44+100.1C101.33+99.86+102.27+99.73+103.24+99.73C103.74+99.73+104.23+99.78+104.71+99.84C105.01+99.88+105.32+99.93+105.61+100C107.1+100.34+108.48+100.98+109.66+101.87L109.68+101.87C109.79+101.93+109.89+102.02+109.98+102.11C112.44+104.09+114.02+107.11+114.02+110.51C114.02+110.85+114+111.18+113.97+111.5C114.02+111.3+114.05+111.15+114.06+111.08C114.06+111.06+114.06+111.04+114.06+111.02C114.06+110.2+114.02+109.47+113.95+108.83C113.83+108.09+113.64+107.36+113.37+106.66Z" opacity="1" fill="#040000"/>
<path d="M113.37+106.66C113.33+106.59+113.29+106.51+113.25+106.44C112.89+105.55+112.45+104.75+111.91+104.03C111.9+104.01+111.88+104+111.87+103.98C111.72+103.78+111.56+103.59+111.4+103.4C111.33+103.33+111.27+103.25+111.2+103.18C111.05+103.02+110.89+102.85+110.73+102.7C110.7+102.67+110.66+102.64+110.62+102.6C109.34+101.43+107.73+100.57+105.8+100.02C104.99+99.83+104.16+99.71+103.29+99.71C102.3+99.71+101.35+99.85+100.44+100.1C101.33+99.86+102.27+99.73+103.24+99.73C103.74+99.73+104.23+99.78+104.71+99.84C105.01+99.88+105.32+99.93+105.61+100C107.1+100.34+108.48+100.98+109.66+101.87L109.68+101.87C109.79+101.93+109.89+102.02+109.98+102.11C112.44+104.09+114.02+107.11+114.02+110.51C114.02+110.85+114+111.18+113.97+111.5C114.02+111.3+114.05+111.15+114.06+111.08C114.06+111.06+114.06+111.04+114.06+111.02C114.06+110.2+114.02+109.47+113.95+108.83C113.83+108.09+113.64+107.36+113.37+106.66Z" opacity="0.35" fill="#d71718"/>
<path d="M109.69+101.87L109.67+101.87C109.78+101.95+109.89+102.03+109.99+102.11C109.9+102.01+109.8+101.93+109.69+101.87Z" opacity="1" fill="#d0a913"/>
<path d="M109.69+101.87L109.67+101.87C109.78+101.95+109.89+102.03+109.99+102.11C109.9+102.01+109.8+101.93+109.69+101.87Z" opacity="0.35" fill="#d71718"/>
<path d="M112.62+115.82C112.6+115.88+112.58+115.94+112.56+116L112.58+116C112.66+115.86+112.75+115.73+112.82+115.59C112.82+115.55+112.81+115.51+112.81+115.48C112.75+115.59+112.68+115.7+112.62+115.82Z" opacity="1" fill="#d0a913"/>
<path d="M112.56+116C112.58+115.94+112.6+115.88+112.62+115.82C112.59+115.88+112.55+115.94+112.52+116L112.56+116Z" opacity="1" fill="#d0a913"/>
<path d="M112.18+116.55C112.08+116.69+111.97+116.82+111.87+116.96L111.93+116.96C112.01+116.85+112.1+116.74+112.18+116.63C112.18+116.63+112.18+116.55+112.18+116.55Z" opacity="1" fill="#d0a913"/>
<path d="M111.46+117.52L111.46+117.49C111.38+117.58+111.29+117.67+111.21+117.76L111.27+117.76C111.33+117.69+111.39+117.63+111.45+117.56C111.45+117.55+111.46+117.54+111.46+117.52Z" opacity="1" fill="#d0a913"/>
<path d="M98.53+120.17L98.53+120.17C98.53+120.17+98.54+120.18+98.55+120.18C98.54+120.18+98.54+120.18+98.53+120.17Z" opacity="1" fill="#040000"/>
<path d="M98.53+120.17L98.53+120.17C98.53+120.17+98.54+120.18+98.55+120.18C98.54+120.18+98.54+120.18+98.53+120.17Z" opacity="0.2" fill="#d0a913"/>
<path d="M98.53+120.17L98.53+120.17C98.53+120.17+98.54+120.18+98.55+120.18C98.54+120.18+98.54+120.18+98.53+120.17Z" opacity="0.35" fill="#d71718"/>
<path d="M92.59+110.63L92.51+110.66C92.52+111.17+92.57+111.67+92.64+112.16L92.58+111.42L92.58+110.63L92.59+110.63Z" opacity="0.2" fill="#d0a913"/>
<path d="M92.59+110.63L92.51+110.66C92.52+111.17+92.57+111.67+92.64+112.16L92.58+111.42L92.58+110.63L92.59+110.63Z" opacity="0.35" fill="#d71718"/>
<path d="M92.59+109.33C92.58+109.32+92.58+109.32+92.58+109.31C92.54+109.7+92.51+110.1+92.51+110.5C92.51+110.55+92.52+110.6+92.52+110.66L92.6+110.63L92.6+109.33L92.59+109.33Z" opacity="1" fill="#040000"/>
<path d="M92.59+109.33C92.58+109.32+92.58+109.32+92.58+109.31C92.54+109.7+92.51+110.1+92.51+110.5C92.51+110.55+92.52+110.6+92.52+110.66L92.6+110.63L92.6+109.33L92.59+109.33Z" opacity="0.2" fill="#d0a913"/>
<path d="M92.59+109.33C92.58+109.32+92.58+109.32+92.58+109.31C92.54+109.7+92.51+110.1+92.51+110.5C92.51+110.55+92.52+110.6+92.52+110.66L92.6+110.63L92.6+109.33L92.59+109.33Z" opacity="0.35" fill="#d71718"/>
<path d="M111.46+117.36C111.46+116.18+111.06+115.11+110.26+114.15L110.18+114.15C110.82+115.65+111.14+116.75+111.14+117.44L111.14+117.76L111.21+117.76C111.29+117.67+111.38+117.58+111.46+117.49C111.46+117.49+111.46+117.36+111.46+117.36Z" opacity="1" fill="#d0a913"/>
<path d="M92.68+110.6L92.59+110.63L92.59+111.42L92.65+112.16C92.71+112.57+92.8+112.97+92.9+113.36C93.18+112.59+93.41+111.94+93.61+111.41C93.61+111.1+93.3+110.83+92.68+110.6Z" opacity="1" fill="#d0a913"/>
<path d="M99.74+100.32C99.55+100.39+99.37+100.45+99.18+100.52C99.1+100.55+99.01+100.59+98.93+100.63C98.68+100.74+98.43+100.86+98.19+100.99C98.16+101+98.14+101.02+98.11+101.03C95.1+102.68+92.97+105.73+92.58+109.3C92.58+109.31+92.59+109.31+92.59+109.32L92.59+110.62L92.68+110.59C93.3+110.82+93.6+111.09+93.6+111.4C93.41+111.92+93.17+112.58+92.89+113.35C93.71+116.34+95.78+118.81+98.51+120.16L98.52+120.16C98.53+120.17+98.53+120.17+98.54+120.17C99.66+120.72+100.88+121.09+102.17+121.22C102.25+121.23+102.34+121.23+102.42+121.23C102.7+121.25+102.97+121.27+103.25+121.27C106.23+121.26+108.93+120.04+110.87+118.08L110.87+117.66C110.71+116.64+110.09+115.47+109.02+114.13C107.09+117.45+105.09+119.56+103+120.47C102.89+120.26+102.81+120.15+102.76+120.15C105.27+118.33+106.93+116.4+107.74+114.37C107.74+114.32+107.71+114.24+107.66+114.13C107.45+114.24+107.34+114.32+107.34+114.37C106.11+116.73+104.48+118.57+102.44+119.91L102.36+119.91L101.64+119.83L101.64+119.59C101.8+119.59+102.17+119.32+102.76+118.79C104.63+117.02+105.92+115.39+106.61+113.89L106.45+113.81L106.37+113.81C106.26+113.81+105.97+114.21+105.49+115.01C104.31+116.83+102.89+118.3+101.23+119.43C101.12+119.27+100.99+119.19+100.83+119.19L100.83+119.03C103.24+116.78+104.74+114.83+105.33+113.17L105.25+113.17L104.85+113.49C104.05+115.2+102.63+116.94+100.59+118.71L100.51+118.71L100.11+118.39C102.79+115.55+104.5+113.01+105.25+110.76C105.25+110.65+105.09+110.47+104.77+110.2C101.56+108.17+98.86+107.07+96.66+106.91L96.66+106.67L96.98+106.19C98.59+106.19+100.38+106.65+102.36+107.55C102.47+107.55+102.52+107.5+102.52+107.39C102.41+107.12+101.4+106.67+99.47+106.03C97.86+105.82+97.06+105.66+97.06+105.55C97.22+105.34+97.3+105.2+97.3+105.15L97.3+105C99.07+105+100.94+105.43+102.92+106.28C103.13+106.28+103.24+106.23+103.24+106.12C102.54+105.48+100.67+104.92+97.62+104.43C97.83+104.22+97.94+104+97.94+103.79L98.1+103.79C99.87+103.84+101.74+104.3+103.72+105.15C103.83+105.15+103.88+105.07+103.88+104.91L103.88+104.75C101.52+103.84+99.71+103.39+98.42+103.39L98.42+103.23C98.53+103.02+98.58+102.83+98.58+102.67L98.74+102.67C98.9+102.67+99.01+102.7+99.06+102.75L99.3+102.67C101.33+102.67+103.82+103.55+106.77+105.32L106.93+105.32C106.98+104.04+107.04+103.18+107.09+102.75C107.09+101.84+106.93+101.06+106.61+100.42C107.47+100.42+107.89+101.54+107.89+103.79L108.13+103.79C108.13+103.52+108.16+103.34+108.21+103.23C108.16+102.21+108+101.46+107.73+100.98L107.73+100.82C108.32+100.82+108.69+101.92+108.85+104.11L109.01+104.11C109.01+104.06+109.04+103.98+109.09+103.87C109.09+102.96+108.93+102.1+108.61+101.3C109.25+101.3+109.63+102.21+109.73+104.03L109.73+104.43C109.73+104.59+109.81+104.67+109.97+104.67L110.13+104.67C110.13+103.81+109.94+102.93+109.57+102.02L109.57+101.86L109.63+101.86C108.44+100.98+107.07+100.33+105.58+99.99C105.57+100+105.57+100+105.56+100.01C105.51+100.01+105.24+99.98+104.76+99.93C104.73+99.9+104.71+99.86+104.68+99.83C104.2+99.76+103.71+99.72+103.21+99.72C102.24+99.72+101.31+99.85+100.41+100.09C100.33+100.11+100.25+100.13+100.17+100.15C100.05+100.21+99.89+100.27+99.74+100.32Z" opacity="1" fill="#d0a913"/>
<path d="M113.14+114.71L113.12+114.82C113.57+113.79+113.86+112.67+113.97+111.51C113.83+112.04+113.54+112.99+113.11+114.3C113.13+114.43+113.14+114.58+113.14+114.71Z" opacity="1" fill="#d0a913"/>
<path d="M110.67+108.93C112.22+110.99+113.05+112.77+113.18+114.29C113.61+112.98+113.91+112.03+114.05+111.5C114.08+111.17+114.1+110.84+114.1+110.51C114.1+107.11+112.49+104.08+109.98+102.11C110.55+102.68+110.86+103.85+110.9+105.64C110.91+106.28+110.83+107.38+110.67+108.93Z" opacity="1" fill="#d0a913"/>
<path d="M112.81+115.47C112.81+115.41+112.79+115.35+112.79+115.28C112.73+115.45+112.67+115.63+112.61+115.81C112.68+115.7+112.75+115.59+112.81+115.47Z" opacity="1" fill="#d0a913"/>
<path d="M112.81+115.47C112.81+115.41+112.79+115.35+112.79+115.28C112.73+115.45+112.67+115.63+112.61+115.81C112.68+115.7+112.75+115.59+112.81+115.47Z" opacity="0.2" fill="#d0a913"/>
<path d="M111.46+112.06L111.46+112.14C112.15+113.48+112.5+114.66+112.5+115.67L112.5+116L112.51+116C112.55+115.94+112.58+115.88+112.61+115.82C112.67+115.64+112.73+115.46+112.79+115.29C112.73+114.21+112.35+113.08+111.62+111.91C111.56+111.9+111.51+111.96+111.46+112.06Z" opacity="1" fill="#d0a913"/>
<path d="M111.46+112.06L111.46+112.14C112.15+113.48+112.5+114.66+112.5+115.67L112.5+116L112.51+116C112.55+115.94+112.58+115.88+112.61+115.82C112.67+115.64+112.73+115.46+112.79+115.29C112.73+114.21+112.35+113.08+111.62+111.91C111.56+111.9+111.51+111.96+111.46+112.06Z" opacity="0.2" fill="#d0a913"/>
<path d="M112.18+116.08C112.18+115.17+111.8+114.21+111.06+113.19L110.98+113.19L110.98+113.35C111.62+115.06+111.94+116.21+111.94+116.8C111.89+116.8+111.86+116.83+111.86+116.88L111.86+116.96L111.87+116.96C111.97+116.82+112.08+116.69+112.18+116.55C112.18+116.55+112.18+116.08+112.18+116.08Z" opacity="1" fill="#d0a913"/>
<path d="M112.18+116.08C112.18+115.17+111.8+114.21+111.06+113.19L110.98+113.19L110.98+113.35C111.62+115.06+111.94+116.21+111.94+116.8C111.89+116.8+111.86+116.83+111.86+116.88L111.86+116.96L111.87+116.96C111.97+116.82+112.08+116.69+112.18+116.55C112.18+116.55+112.18+116.08+112.18+116.08Z" opacity="0.2" fill="#d0a913"/>
<path d="M456.33+116.03L456.21+116.03L456.21+116.07C456.47+116.24+456.71+116.43+456.96+116.62C456.78+116.37+456.57+116.17+456.33+116.03Z" opacity="1" fill="none"/>
<path d="M453.55+114.53L453.55+114.64C453.78+114.74+453.99+114.85+454.21+114.96C454.02+114.69+453.8+114.53+453.55+114.53Z" opacity="1" fill="none"/>
<path d="M454.83+115.22C454.83+115.23+454.84+115.24+454.84+115.25C455.13+115.4+455.41+115.57+455.68+115.75C455.45+115.4+455.16+115.22+454.83+115.22Z" opacity="1" fill="none"/>
<path d="M451.94+113.95C451.96+113.99+451.98+114.04+452+114.09C452.29+114.18+452.58+114.28+452.86+114.39C452.6+114.11+452.3+113.95+451.94+113.95Z" opacity="1" fill="none"/>
<path d="M487.19+83.67L472.51+83.67C471.43+83.67+470.54+83.94+469.85+84.48C469+85.25+467.31+87.99+464.76+92.69C460.91+99.63+456.13+106.52+450.43+113.38C450.35+113.38+449.97+113.34+449.27+113.26C445.96+109.33+442.3+103.67+438.29+96.27C436.21+91.88+435.09+89.61+434.94+89.45C433.86+85.6+432.17+83.67+429.85+83.67L410.43+83.67C409.12+83.83+408.47+84.4+408.47+85.4L408.47+86.21C408.47+87.6+410.28+92.18+413.9+99.97C417.44+107.14+423.38+116.08+431.7+126.79L431.7+128.12C432.25+119.92+439.07+113.43+447.43+113.43C449.01+113.43+450.54+113.67+451.98+114.1C451.96+114.06+451.95+114.01+451.92+113.96C452.28+113.96+452.58+114.12+452.84+114.39C453.07+114.48+453.31+114.55+453.54+114.65L453.54+114.54C453.79+114.54+454.01+114.69+454.2+114.97C454.41+115.07+454.62+115.16+454.82+115.27C454.82+115.26+454.81+115.25+454.81+115.24C455.15+115.24+455.43+115.42+455.66+115.77C455.84+115.88+456.02+115.98+456.19+116.09L456.19+116.05L456.31+116.05C456.55+116.19+456.76+116.39+456.95+116.64C460.26+119.14+462.54+122.9+463.08+127.22C463.63+126.68+465.41+124.74+468.45+121.37C474.54+113.97+479.32+107.35+482.78+101.49C487.33+92.94+489.6+87.62+489.6+85.54L489.6+85.4C489.62+84.25+488.81+83.67+487.19+83.67Z" opacity="1" fill="#040000"/>
<path d="M431.82+131.3L428.13+134.99C423.2+140.54+418.92+146.13+415.3+151.75C409.44+162+406.17+168.97+405.47+172.67L405.47+172.9C405.47+174.29+406.39+174.98+408.24+174.98L422+174.98C425.01+174.98+426.82+174.29+427.43+172.9C429.82+167.51+432.98+161.69+436.91+155.45C438.98+152.04+441.64+148.45+444.85+144.69C438.06+143.57+432.75+138.14+431.82+131.3Z" opacity="1" fill="#040000"/>
<path d="M431.71+129.79L431.71+128.11C431.69+128.46+431.66+128.81+431.66+129.17C431.66+129.89+431.73+130.6+431.82+131.3L431.83+131.29L431.71+129.79Z" opacity="1" fill="#d0a913"/>
<path d="M524.97+103.78C539.41+118.16+550.29+128.89+554.79+133.29C556.49+134.95+559.2+134.95+560.9+133.29C563.49+130.77+564.03+127.39+565.35+126.14C568.58+123.08+575.07+128.1+575.07+128.1C574.47+128.81+519.96+184.23+519.65+184.23C519.42+184.23+512.72+179.13+517.14+174.39C518.19+173.27+521.26+172.02+523.23+171.3C524.03+171.01+524.26+169.99+523.66+169.38C518.19+163.92+497.52+143.3+497.46+143.3C497.38+143.3+494.46+146.23+488.68+152.08C488.52+151.85+488.45+140.29+488.45+140.29C488.44+139.77+524.97+103.78+524.97+103.78Z" opacity="1" fill="#040000"/>
</g>
</g>
</svg>
