<?xml version="1.0" encoding="utf-8"?>
<!-- Generator: Adobe Illustrator 23.0.3, SVG Export Plug-In . SVG Version: 6.00 Build 0)  -->
<svg version="1.1" id="图层_1" xmlns="http://www.w3.org/2000/svg" xmlns:xlink="http://www.w3.org/1999/xlink" x="0px" y="0px"
	 viewBox="0 0 700 223.63" style="enable-background:new 0 0 700 223.63;" xml:space="preserve">
<style type="text/css">
	.st0{fill:#040000;}
	.st1{fill:#D0A913;}
	.st2{opacity:0.2;fill:#D0A913;}
	.st3{opacity:0.35;fill:#D71718;}
	.st4{fill:none;}
</style>
<g>
	<path class="st0" d="M205.01,90.49c-0.16-0.23-0.27-0.35-0.35-0.35h-20.11c-0.08,0-0.16,0.08-0.23,0.23v6.01l-0.23,0.35
		c-7.24-5.01-15.45-7.51-24.62-7.51c-11.1,0-21.04,3.89-29.82,11.67c-4.39,4.47-7.28,8.25-8.67,11.33
		c-3.47,6.86-5.2,12.87-5.2,18.03v5.09c0,2.24,0.62,5.59,1.85,10.06c1.54,4.47,3.04,7.78,4.51,9.94c1,1.93,3.2,4.74,6.59,8.44
		c8.94,8.4,19.11,12.6,30.52,12.6c9.17,0,17.45-2.43,24.85-7.28h0.23v5.09l0.12,0.35l0.69-0.12h18.96l0.69,0.12l0.23-0.46
		c0,0-8.15-15.03-8.15-39.94C196.87,108.06,205.01,90.49,205.01,90.49z M180.16,145.97c-5.4,7.01-12.1,10.52-20.11,10.52
		c-7.63,0-14.14-3.27-19.53-9.83c-2.93-4.62-4.39-8.67-4.39-12.14v-3.7c0-1.08,0.38-3.04,1.16-5.9c1.23-3.24,3.16-6.2,5.78-8.9
		c5.09-4.85,10.56-7.28,16.41-7.28h0.92c4.62,0,9.36,1.62,14.22,4.85c4.08,3.62,6.63,6.86,7.63,9.71c1.39,3.62,2.08,6.7,2.08,9.25
		C184.32,137.11,182.93,141.58,180.16,145.97z"/>
	<path class="st1" d="M210.26,131.82c3.24,5.01,4.85,7.78,4.85,8.32c-2.47,1.54-4.93,2.97-7.4,4.28l-0.23-0.23v-10.63
		C207.64,133.25,208.56,132.67,210.26,131.82z"/>
	<path class="st1" d="M219.04,141.53c0,0.23,1.54,2.89,4.62,7.98v0.23c-0.62,0.46-5.9,3.58-15.84,9.36c-0.23,0-0.35-0.12-0.35-0.35
		v-10.4c0.54-0.62,4.31-2.89,11.33-6.82H219.04z"/>
	<path class="st1" d="M227.71,151.13h0.12l4.62,8.32c-16.34,9.4-24.66,14.1-24.97,14.1v-10.87
		C220.43,154.98,227.17,151.13,227.71,151.13z"/>
	<path class="st0" d="M272.51,103.2c14.44,14.38,25.32,25.11,29.82,29.51c1.7,1.66,4.41,1.66,6.11,0c2.59-2.52,3.13-5.9,4.45-7.15
		c3.23-3.06,9.72,1.96,9.72,1.96c-0.6,0.71-55.11,56.13-55.42,56.13c-0.23,0-6.93-5.1-2.51-9.84c1.05-1.12,4.12-2.37,6.09-3.09
		c0.8-0.29,1.03-1.31,0.43-1.92c-5.47-5.46-26.14-26.08-26.2-26.08c-0.08,0-3,2.93-8.78,8.78c-0.16-0.23-0.23-11.79-0.23-11.79
		C235.98,139.19,272.51,103.2,272.51,103.2z"/>
	<path class="st0" d="M438.99,141.93v0.12c0.08,0,0.27,0.08,0.58,0.23v-0.23c-0.08,0-0.23-0.04-0.46-0.12H438.99z"/>
	<path class="st0" d="M440.15,142.39v0.23c0.15,0,0.31,0.04,0.46,0.12h0.12v-0.12c-0.08,0-0.23-0.08-0.46-0.23H440.15z"/>
	<path class="st0" d="M440.96,142.85v0.12c0.23,0,0.77,0.19,1.62,0.58h0.12v-0.12l-1.62-0.58H440.96z"/>
	<path class="st0" d="M442.8,143.54v0.12c0.23,0,0.65,0.12,1.27,0.35h0.12v-0.12c-0.54-0.23-0.85-0.35-0.92-0.35H442.8z"/>
	<path class="st0" d="M462.92,128.06h0.23c5.7,5.86,10.52,11.64,14.45,17.34c6.7,9.79,11.25,17.88,13.64,24.27
		c0.62,1.23,0.92,2.24,0.92,3c0,1.54-1.66,2.31-4.97,2.31h-15.03c-2.77,0-4.39-0.62-4.86-1.85l-5.66-11.79
		c-2.62-4.93-6.05-10.09-10.29-15.49c-0.08,0-0.58-0.54-1.5-1.62v-0.12c2.16-0.31,4.47-1.31,6.94-3.01
		C460.88,137.88,462.92,133.53,462.92,128.06z"/>
	<rect x="462.57" y="125.86" class="st0" width="0.12" height="0.46"/>
	<path class="st0" d="M619.27,78.12c2.73,0,4.91,2.28,4.79,5.01c-0.41,9.31-1.28,28.84-1.55,34.62c-0.01,0.3,0.41,0.39,0.52,0.1
		c1.62-4.17,6.52-16.84,14.6-37.89c0.32-0.83,1.11-1.38,2-1.38l18.84,0c1.49,0,2.52,1.47,2.01,2.87c-5,13.56-26.13,69.2-34.87,92.31
		c-0.3,0.81-1.08,1.33-1.94,1.31c-3.39-0.06-12.02-0.23-17.61-0.34c-2.81-0.05-5.03-2.4-4.93-5.21c0.33-9.17,1.02-27.95,1.25-33.38
		c0.01-0.3-0.4-0.39-0.52-0.11c-1.7,4.16-6.69,16.79-14.97,37.87c-0.31,0.79-1.07,1.31-1.92,1.31l-18.52,0
		c-1.43,0-2.43-1.43-1.92-2.78l34.98-93.27c0.24-0.63,0.84-1.05,1.51-1.05H619.27z"/>
	<g>
		<path class="st1" d="M259.48,96.06v0.16c0.31,0,1.03,0.26,2.17,0.78h0.16v-0.16l-2.18-0.78H259.48z"/>
		<path class="st1" d="M261.97,97v0.15c0.31,0,0.88,0.16,1.71,0.47h0.15v-0.16c-0.73-0.31-1.14-0.47-1.24-0.47H261.97z"/>
		<path class="st1" d="M257,94.82h-0.15v0.15c0.1,0,0.36,0.1,0.78,0.31v-0.25c-0.05-0.03-0.09-0.06-0.14-0.08
			C257.37,94.93,257.22,94.9,257,94.82z"/>
		<path class="st1" d="M258.4,95.44v0.31c0.21,0,0.41,0.05,0.62,0.16h0.15V95.8c-0.25-0.11-0.49-0.23-0.74-0.36H258.4z"/>
		<path class="st1" d="M280.14,60.03h-0.05c0.21,0.16,0.42,0.3,0.63,0.47C280.54,60.31,280.35,60.15,280.14,60.03z"/>
		<rect x="288.53" y="73.23" class="st1" width="0.16" height="0.62"/>
		<path class="st1" d="M286.05,87.37l0.16-0.78c0-0.08-0.02-0.16-0.02-0.24c-0.18,0.35-0.38,0.68-0.57,1.02H286.05z"/>
		<path class="st1" d="M284.49,89.23c0.31,0,0.47-0.1,0.47-0.31v-0.49c-0.19,0.28-0.4,0.53-0.6,0.8H284.49z"/>
		<path class="st1" d="M283.25,90.78c0.21,0,0.31-0.16,0.31-0.47v-0.07c-0.16,0.18-0.32,0.35-0.48,0.53H283.25z"/>
		<path class="st2" d="M257.48,94.95c0.05,0.03,0.09,0.06,0.14,0.08v-0.06C257.59,94.98,257.53,94.96,257.48,94.95z"/>
		<path class="st2" d="M258.55,95.44h-0.12c0.24,0.12,0.49,0.24,0.74,0.36v-0.04C259.07,95.75,258.86,95.65,258.55,95.44z"/>
		<path class="st2" d="M247.06,78.51v-4.04c-0.04-0.05-0.07-0.09-0.1-0.13c-0.09,0.79-0.15,1.6-0.15,2.42
			c0,1.31,0.14,2.58,0.37,3.82l0.04-0.04L247.06,78.51z"/>
		<path class="st2" d="M272.22,56.45c0.01-0.01,0.02-0.03,0.03-0.04c-0.57-0.13-1.15-0.23-1.74-0.31c0.05,0.06,0.1,0.13,0.16,0.19
			C271.6,56.4,272.12,56.45,272.22,56.45z"/>
		<path class="st1" d="M281.23,83.79h-0.15c1.24,2.9,1.86,5.02,1.86,6.37v0.62h0.14c0.16-0.18,0.33-0.35,0.48-0.53v-0.25
			C283.56,87.73,282.79,85.66,281.23,83.79z"/>
		<path class="st2" d="M281.23,83.79h-0.15c1.24,2.9,1.86,5.02,1.86,6.37v0.62h0.14c0.16-0.18,0.33-0.35,0.48-0.53v-0.25
			C283.56,87.73,282.79,85.66,281.23,83.79z"/>
		<path class="st1" d="M257.48,94.95c0.05,0.01,0.11,0.02,0.14,0.02v0.06c0.27,0.15,0.54,0.27,0.81,0.41h0.12
			c0.31,0.21,0.52,0.31,0.62,0.31v0.04c2.6,1.16,5.47,1.82,8.49,1.82c5.79,0,11.03-2.36,14.81-6.17v-0.82
			c-0.31-1.97-1.5-4.25-3.57-6.83c-3.73,6.42-7.61,10.51-11.65,12.27c-0.21-0.41-0.36-0.62-0.47-0.62
			c4.87-3.52,8.08-7.25,9.63-11.18c0-0.1-0.05-0.26-0.16-0.47c-0.41,0.21-0.62,0.36-0.62,0.47c-2.38,4.56-5.54,8.13-9.48,10.72
			h-0.16l-1.4-0.15v-0.47c0.31,0,1.03-0.52,2.17-1.55c3.62-3.42,6.11-6.57,7.46-9.48l-0.31-0.16h-0.15c-0.21,0-0.78,0.78-1.71,2.33
			c-2.28,3.52-5.02,6.37-8.23,8.54c-0.21-0.31-0.47-0.47-0.78-0.47v-0.31c4.66-4.35,7.56-8.13,8.7-11.34h-0.15l-0.78,0.62
			c-1.55,3.32-4.3,6.68-8.23,10.1h-0.15l-0.78-0.62c5.18-5.49,8.49-10.41,9.94-14.76c0-0.21-0.31-0.57-0.93-1.09
			c-6.21-3.93-11.44-6.06-15.69-6.37v-0.47l0.62-0.93c3.11,0,6.57,0.88,10.41,2.64c0.21,0,0.31-0.1,0.31-0.31
			c-0.21-0.52-2.17-1.4-5.9-2.64c-3.11-0.41-4.66-0.72-4.66-0.93c0.31-0.41,0.47-0.67,0.47-0.78v-0.31c3.42,0,7.04,0.83,10.87,2.48
			c0.41,0,0.62-0.1,0.62-0.31c-1.35-1.24-4.97-2.33-10.87-3.26c0.41-0.41,0.62-0.83,0.62-1.24h0.31c3.42,0.1,7.04,0.98,10.87,2.64
			c0.21,0,0.31-0.16,0.31-0.47v-0.31c-4.56-1.76-8.08-2.64-10.56-2.64v-0.31c0.21-0.41,0.31-0.78,0.31-1.09h0.31
			c0.31,0,0.52,0.05,0.62,0.16l0.47-0.16c3.93,0,8.75,1.71,14.44,5.13h0.31c0.1-2.49,0.21-4.14,0.31-4.97c0-1.76-0.31-3.26-0.93-4.5
			c1.65,0,2.49,2.17,2.49,6.52h0.47c0-0.52,0.05-0.88,0.15-1.09c-0.11-1.97-0.41-3.42-0.93-4.35v-0.31c1.14,0,1.86,2.12,2.17,6.37
			h0.31c0-0.1,0.05-0.26,0.15-0.47c0-1.76-0.31-3.42-0.93-4.97c1.24,0,1.97,1.76,2.17,5.28V65c0,0.31,0.15,0.47,0.47,0.47h0.31
			c0-1.66-0.36-3.36-1.09-5.13v-0.31h0.11c-2.3-1.71-4.95-2.96-7.84-3.61c-0.01,0.01-0.02,0.03-0.03,0.04
			c-0.11,0-0.62-0.05-1.55-0.15c-0.05-0.06-0.1-0.13-0.16-0.19c-0.93-0.13-1.88-0.22-2.84-0.22c-10.7,0-19.51,8.07-20.71,18.45
			c0.04,0.05,0.07,0.09,0.1,0.13v4.04l0.15,2.02l-0.04,0.04C248.32,86.76,252.18,91.98,257.48,94.95z"/>
		<path class="st1" d="M280.72,60.49c1.07,1.11,1.66,3.38,1.75,6.83c0,1.24-0.15,3.37-0.47,6.37c3.21,4.35,4.81,8.08,4.81,11.18
			l-0.04,0.21c1.12-2.55,1.74-5.37,1.74-8.34C288.53,70.18,285.48,64.32,280.72,60.49z"/>
		<path class="st1" d="M283.56,79.75v0.15c1.34,2.59,2.02,4.87,2.02,6.84v0.62h0.03c0.2-0.33,0.39-0.67,0.57-1.02
			c-0.05-2.21-0.81-4.51-2.31-6.91C283.77,79.44,283.66,79.55,283.56,79.75z"/>
		<path class="st2" d="M283.56,79.75v0.15c1.34,2.59,2.02,4.87,2.02,6.84v0.62h0.03c0.2-0.33,0.39-0.67,0.57-1.02
			c-0.05-2.21-0.81-4.51-2.31-6.91C283.77,79.44,283.66,79.55,283.56,79.75z"/>
		<path class="st1" d="M282.79,81.93h-0.16v0.31c1.24,3.32,1.86,5.54,1.86,6.68c-0.11,0-0.16,0.05-0.16,0.16v0.15h0.03
			c0.2-0.27,0.41-0.52,0.6-0.8v-0.91C284.96,85.76,284.23,83.9,282.79,81.93z"/>
		<path class="st2" d="M282.79,81.93h-0.16v0.31c1.24,3.32,1.86,5.54,1.86,6.68c-0.11,0-0.16,0.05-0.16,0.16v0.15h0.03
			c0.2-0.27,0.41-0.52,0.6-0.8v-0.91C284.96,85.76,284.23,83.9,282.79,81.93z"/>
	</g>
	<g>
		<path class="st1" d="M528.32,97.89v0.16c-0.31,0-1.03,0.26-2.17,0.78h-0.16v-0.16l2.18-0.78H528.32z"/>
		<path class="st1" d="M525.83,98.82v0.15c-0.31,0-0.88,0.16-1.71,0.47h-0.15v-0.16c0.73-0.31,1.14-0.47,1.24-0.47H525.83z"/>
		<path class="st1" d="M530.8,96.65h0.15v0.15c-0.1,0-0.36,0.1-0.78,0.31v-0.25c0.05-0.03,0.09-0.06,0.14-0.08
			C530.43,96.76,530.58,96.72,530.8,96.65z"/>
		<path class="st1" d="M529.4,97.27v0.31c-0.21,0-0.41,0.05-0.62,0.16h-0.15v-0.11c0.25-0.11,0.49-0.23,0.74-0.36H529.4z"/>
		<path class="st1" d="M507.66,61.86h0.05c-0.21,0.16-0.42,0.3-0.63,0.47C507.26,62.14,507.45,61.97,507.66,61.86z"/>
		<rect x="499.11" y="75.06" class="st1" width="0.16" height="0.62"/>
		<path class="st1" d="M501.75,89.19l-0.16-0.78c0-0.08,0.02-0.16,0.02-0.24c0.18,0.35,0.38,0.68,0.57,1.02H501.75z"/>
		<path class="st1" d="M503.31,91.06c-0.31,0-0.47-0.1-0.47-0.31v-0.49c0.19,0.28,0.4,0.53,0.6,0.8H503.31z"/>
		<path class="st1" d="M504.55,92.61c-0.21,0-0.31-0.16-0.31-0.47v-0.07c0.16,0.18,0.32,0.35,0.48,0.53H504.55z"/>
		<path class="st2" d="M530.32,96.78c-0.05,0.03-0.09,0.06-0.14,0.08v-0.06C530.21,96.81,530.27,96.79,530.32,96.78z"/>
		<path class="st2" d="M529.25,97.27h0.12c-0.24,0.12-0.49,0.24-0.74,0.36v-0.04C528.73,97.58,528.94,97.48,529.25,97.27z"/>
		<path class="st2" d="M540.74,80.34V76.3c0.04-0.05,0.07-0.09,0.1-0.13c0.09,0.79,0.15,1.6,0.15,2.42c0,1.31-0.14,2.58-0.37,3.82
			l-0.04-0.04L540.74,80.34z"/>
		<path class="st2" d="M515.58,58.28c-0.01-0.01-0.02-0.03-0.03-0.04c0.57-0.13,1.15-0.23,1.74-0.31c-0.05,0.06-0.1,0.13-0.16,0.19
			C516.2,58.23,515.68,58.28,515.58,58.28z"/>
		<path class="st1" d="M506.57,85.62h0.15c-1.24,2.9-1.86,5.02-1.86,6.37v0.62h-0.14c-0.16-0.18-0.33-0.35-0.48-0.53v-0.25
			C504.24,89.56,505.01,87.48,506.57,85.62z"/>
		<path class="st2" d="M506.57,85.62h0.15c-1.24,2.9-1.86,5.02-1.86,6.37v0.62h-0.14c-0.16-0.18-0.33-0.35-0.48-0.53v-0.25
			C504.24,89.56,505.01,87.48,506.57,85.62z"/>
		<path class="st1" d="M530.32,96.78c-0.05,0.01-0.11,0.02-0.14,0.02v0.06c-0.27,0.15-0.54,0.27-0.81,0.41h-0.12
			c-0.31,0.21-0.52,0.31-0.62,0.31v0.04c-2.6,1.16-5.47,1.82-8.49,1.82c-5.79,0-11.03-2.36-14.81-6.17v-0.82
			c0.31-1.97,1.5-4.25,3.57-6.83c3.73,6.42,7.61,10.51,11.65,12.27c0.21-0.41,0.36-0.62,0.47-0.62c-4.87-3.52-8.08-7.25-9.63-11.18
			c0-0.1,0.05-0.26,0.16-0.47c0.41,0.21,0.62,0.36,0.62,0.47c2.38,4.56,5.54,8.13,9.48,10.72h0.16l1.4-0.15v-0.47
			c-0.31,0-1.03-0.52-2.17-1.55c-3.62-3.42-6.11-6.57-7.46-9.48l0.31-0.16h0.15c0.21,0,0.78,0.78,1.71,2.33
			c2.28,3.52,5.02,6.37,8.23,8.54c0.21-0.31,0.47-0.47,0.78-0.47V95.1c-4.66-4.35-7.56-8.13-8.7-11.34h0.15l0.78,0.62
			c1.55,3.32,4.3,6.68,8.23,10.1h0.15l0.78-0.62c-5.18-5.49-8.49-10.41-9.94-14.76c0-0.21,0.31-0.57,0.93-1.09
			c6.21-3.93,11.44-6.06,15.69-6.37v-0.47l-0.62-0.93c-3.11,0-6.57,0.88-10.41,2.64c-0.21,0-0.31-0.1-0.31-0.31
			c0.21-0.52,2.17-1.4,5.9-2.64c3.11-0.41,4.66-0.72,4.66-0.93c-0.31-0.41-0.47-0.67-0.47-0.78v-0.31c-3.42,0-7.04,0.83-10.87,2.48
			c-0.41,0-0.62-0.1-0.62-0.31c1.35-1.24,4.97-2.33,10.87-3.26c-0.41-0.41-0.62-0.83-0.62-1.24h-0.31
			c-3.42,0.1-7.04,0.98-10.87,2.64c-0.21,0-0.31-0.16-0.31-0.47v-0.31c4.56-1.76,8.08-2.64,10.56-2.64V64.5
			c-0.21-0.41-0.31-0.78-0.31-1.09h-0.31c-0.31,0-0.52,0.05-0.62,0.16l-0.47-0.16c-3.93,0-8.75,1.71-14.44,5.13h-0.31
			c-0.1-2.49-0.21-4.14-0.31-4.97c0-1.76,0.31-3.26,0.93-4.5c-1.65,0-2.49,2.17-2.49,6.52h-0.47c0-0.52-0.05-0.88-0.15-1.09
			c0.1-1.97,0.41-3.42,0.93-4.35v-0.31c-1.14,0-1.86,2.12-2.17,6.37h-0.31c0-0.1-0.05-0.26-0.15-0.47c0-1.76,0.31-3.42,0.93-4.97
			c-1.24,0-1.97,1.76-2.17,5.28v0.78c0,0.31-0.15,0.47-0.47,0.47h-0.31c0-1.66,0.36-3.36,1.09-5.13v-0.31h-0.11
			c2.3-1.71,4.95-2.96,7.84-3.61c0.01,0.01,0.02,0.03,0.03,0.04c0.1,0,0.62-0.05,1.55-0.15c0.05-0.06,0.1-0.13,0.16-0.19
			c0.93-0.13,1.88-0.22,2.84-0.22c10.7,0,19.51,8.07,20.71,18.45c-0.04,0.05-0.07,0.09-0.1,0.13v4.04l-0.15,2.02l0.04,0.04
			C539.48,88.59,535.62,93.81,530.32,96.78z"/>
		<path class="st1" d="M507.08,62.32c-1.07,1.11-1.66,3.38-1.75,6.83c0,1.24,0.15,3.37,0.47,6.37c-3.21,4.35-4.81,8.08-4.81,11.18
			l0.04,0.21c-1.12-2.55-1.74-5.37-1.74-8.34C499.27,72,502.32,66.15,507.08,62.32z"/>
		<path class="st1" d="M504.24,81.58v0.15c-1.34,2.59-2.02,4.87-2.02,6.84v0.62h-0.03c-0.2-0.33-0.39-0.67-0.57-1.02
			c0.05-2.21,0.81-4.51,2.31-6.91C504.03,81.27,504.14,81.38,504.24,81.58z"/>
		<path class="st2" d="M504.24,81.58v0.15c-1.34,2.59-2.02,4.87-2.02,6.84v0.62h-0.03c-0.2-0.33-0.39-0.67-0.57-1.02
			c0.05-2.21,0.81-4.51,2.31-6.91C504.03,81.27,504.14,81.38,504.24,81.58z"/>
		<path class="st1" d="M505.01,83.76h0.16v0.31c-1.24,3.32-1.86,5.54-1.86,6.68c0.1,0,0.16,0.05,0.16,0.16v0.15h-0.03
			c-0.2-0.27-0.41-0.52-0.6-0.8v-0.91C502.84,87.59,503.57,85.73,505.01,83.76z"/>
		<path class="st2" d="M505.01,83.76h0.16v0.31c-1.24,3.32-1.86,5.54-1.86,6.68c0.1,0,0.16,0.05,0.16,0.16v0.15h-0.03
			c-0.2-0.27-0.41-0.52-0.6-0.8v-0.91C502.84,87.59,503.57,85.73,505.01,83.76z"/>
	</g>
	<g>
		<path class="st1" d="M441.2,143.74v0.12c0.24,0,0.78,0.2,1.65,0.59h0.12v-0.12l-1.65-0.59H441.2z"/>
		<path class="st1" d="M443.08,144.45v0.12c0.24,0,0.66,0.12,1.29,0.35h0.12v-0.12c-0.55-0.24-0.86-0.35-0.94-0.35H443.08z"/>
		<path class="st1" d="M439.32,142.8h-0.12v0.12c0.08,0,0.27,0.08,0.59,0.24v-0.19c-0.04-0.02-0.07-0.04-0.1-0.06
			C439.6,142.89,439.48,142.86,439.32,142.8z"/>
		<path class="st1" d="M440.38,143.27v0.24c0.16,0,0.31,0.04,0.47,0.12h0.12v-0.08c-0.19-0.08-0.37-0.18-0.56-0.27H440.38z"/>
		<path class="st1" d="M456.83,116.48h-0.03c0.16,0.12,0.32,0.23,0.47,0.35C457.13,116.69,456.99,116.57,456.83,116.48z"/>
		<rect x="463.17" y="126.47" class="st1" width="0.12" height="0.47"/>
		<path class="st1" d="M461.29,137.16l0.12-0.59c0-0.06-0.01-0.12-0.02-0.18c-0.14,0.26-0.28,0.52-0.43,0.77H461.29z"/>
		<path class="st1" d="M460.12,138.57c0.24,0,0.35-0.08,0.35-0.23v-0.37c-0.14,0.21-0.3,0.4-0.45,0.6H460.12z"/>
		<path class="st1" d="M459.18,139.75c0.16,0,0.24-0.12,0.24-0.35v-0.05c-0.12,0.14-0.24,0.27-0.37,0.4H459.18z"/>
		<path class="st2" d="M439.68,142.9c0.04,0.02,0.07,0.04,0.1,0.06v-0.05C439.76,142.92,439.72,142.91,439.68,142.9z"/>
		<path class="st2" d="M440.49,143.27h-0.09c0.19,0.09,0.37,0.18,0.56,0.27v-0.03C440.88,143.51,440.73,143.43,440.49,143.27z"/>
		<path class="st2" d="M431.8,130.46v-3.06c-0.03-0.03-0.05-0.07-0.08-0.1c-0.07,0.6-0.11,1.21-0.11,1.83c0,0.99,0.1,1.95,0.28,2.89
			l0.03-0.03L431.8,130.46z"/>
		<path class="st2" d="M450.83,113.78c0.01-0.01,0.02-0.02,0.03-0.03c-0.43-0.1-0.87-0.17-1.32-0.23c0.04,0.05,0.08,0.1,0.12,0.15
			C450.36,113.74,450.75,113.78,450.83,113.78z"/>
		<path class="st1" d="M457.65,134.46h-0.12c0.94,2.19,1.41,3.8,1.41,4.82v0.47h0.11c0.12-0.13,0.25-0.26,0.37-0.4v-0.19
			C459.41,137.44,458.82,135.87,457.65,134.46z"/>
		<path class="st2" d="M457.65,134.46h-0.12c0.94,2.19,1.41,3.8,1.41,4.82v0.47h0.11c0.12-0.13,0.25-0.26,0.37-0.4v-0.19
			C459.41,137.44,458.82,135.87,457.65,134.46z"/>
		<path class="st1" d="M439.68,142.9c0.04,0.01,0.08,0.02,0.1,0.02v0.05c0.2,0.11,0.41,0.2,0.62,0.31h0.09
			c0.24,0.16,0.39,0.24,0.47,0.24v0.03c1.96,0.88,4.14,1.38,6.43,1.38c4.38,0,8.34-1.79,11.2-4.67v-0.62
			c-0.24-1.49-1.14-3.21-2.7-5.17c-2.82,4.86-5.76,7.95-8.81,9.28c-0.16-0.31-0.27-0.47-0.35-0.47c3.68-2.66,6.11-5.48,7.29-8.46
			c0-0.08-0.04-0.19-0.12-0.35c-0.31,0.16-0.47,0.28-0.47,0.35c-1.8,3.45-4.19,6.15-7.17,8.11h-0.12l-1.06-0.12v-0.35
			c0.24,0,0.78-0.39,1.65-1.17c2.74-2.59,4.62-4.97,5.64-7.17l-0.24-0.12h-0.12c-0.16,0-0.59,0.59-1.29,1.76
			c-1.72,2.66-3.8,4.82-6.23,6.46c-0.16-0.24-0.35-0.35-0.59-0.35v-0.24c3.53-3.29,5.72-6.15,6.58-8.58h-0.12l-0.59,0.47
			c-1.18,2.51-3.25,5.05-6.23,7.64h-0.12l-0.59-0.47c3.92-4.15,6.42-7.87,7.52-11.16c0-0.16-0.24-0.43-0.71-0.82
			c-4.7-2.98-8.66-4.58-11.87-4.82v-0.35l0.47-0.7c2.35,0,4.97,0.67,7.87,2c0.16,0,0.24-0.08,0.24-0.24c-0.16-0.39-1.65-1.06-4.47-2
			c-2.35-0.31-3.53-0.55-3.53-0.7c0.24-0.31,0.35-0.51,0.35-0.59v-0.23c2.59,0,5.33,0.63,8.23,1.88c0.31,0,0.47-0.08,0.47-0.23
			c-1.02-0.94-3.76-1.76-8.23-2.47c0.31-0.31,0.47-0.63,0.47-0.94h0.24c2.59,0.08,5.33,0.75,8.23,2c0.16,0,0.23-0.12,0.23-0.35
			v-0.24c-3.45-1.33-6.11-2-7.99-2v-0.23c0.16-0.31,0.23-0.59,0.23-0.82h0.24c0.24,0,0.39,0.04,0.47,0.12l0.35-0.12
			c2.98,0,6.62,1.29,10.93,3.88h0.24c0.08-1.88,0.16-3.13,0.24-3.76c0-1.33-0.24-2.47-0.7-3.41c1.25,0,1.88,1.65,1.88,4.94h0.35
			c0-0.39,0.04-0.66,0.12-0.82c-0.08-1.49-0.31-2.59-0.7-3.29v-0.23c0.86,0,1.41,1.61,1.65,4.82h0.24c0-0.08,0.04-0.2,0.12-0.35
			c0-1.33-0.24-2.59-0.7-3.76c0.94,0,1.49,1.33,1.65,4v0.59c0,0.24,0.12,0.35,0.35,0.35h0.24c0-1.25-0.28-2.55-0.82-3.88v-0.24h0.08
			c-1.74-1.29-3.75-2.24-5.93-2.73c-0.01,0.01-0.02,0.02-0.03,0.03c-0.08,0-0.47-0.04-1.18-0.12c-0.04-0.05-0.08-0.1-0.12-0.15
			c-0.71-0.1-1.42-0.16-2.15-0.16c-8.1,0-14.76,6.1-15.67,13.96c0.03,0.03,0.05,0.07,0.08,0.1v3.06l0.12,1.53l-0.03,0.03
			C432.75,136.7,435.67,140.65,439.68,142.9z"/>
		<path class="st1" d="M457.27,116.83c0.81,0.84,1.26,2.55,1.32,5.17c0,0.94-0.12,2.55-0.35,4.82c2.43,3.29,3.64,6.11,3.64,8.46
			l-0.03,0.16c0.84-1.93,1.32-4.06,1.32-6.31C463.17,124.16,460.86,119.72,457.27,116.83z"/>
		<path class="st1" d="M459.41,131.4v0.12c1.02,1.96,1.53,3.68,1.53,5.17v0.47h0.02c0.15-0.25,0.3-0.51,0.43-0.77
			c-0.04-1.67-0.61-3.41-1.75-5.22C459.57,131.17,459.49,131.25,459.41,131.4z"/>
		<path class="st2" d="M459.41,131.4v0.12c1.02,1.96,1.53,3.68,1.53,5.17v0.47h0.02c0.15-0.25,0.3-0.51,0.43-0.77
			c-0.04-1.67-0.61-3.41-1.75-5.22C459.57,131.17,459.49,131.25,459.41,131.4z"/>
		<path class="st1" d="M458.82,133.05h-0.12v0.23c0.94,2.51,1.41,4.19,1.41,5.05c-0.08,0-0.12,0.04-0.12,0.12v0.12h0.02
			c0.15-0.2,0.31-0.4,0.45-0.6v-0.69C460.47,135.95,459.92,134.54,458.82,133.05z"/>
		<path class="st2" d="M458.82,133.05h-0.12v0.23c0.94,2.51,1.41,4.19,1.41,5.05c-0.08,0-0.12,0.04-0.12,0.12v0.12h0.02
			c0.15-0.2,0.31-0.4,0.45-0.6v-0.69C460.47,135.95,459.92,134.54,458.82,133.05z"/>
	</g>
	<path class="st0" d="M111.88,103.98c0.01,0.02,0.03,0.03,0.04,0.05C111.91,104.01,111.9,104,111.88,103.98z"/>
	<path class="st0" d="M92.54,109.26c0.41-3.56,2.56-6.58,5.57-8.22c0.03-0.01,0.05-0.03,0.08-0.04c0.24-0.13,0.49-0.25,0.74-0.36
		c0.08-0.04,0.16-0.08,0.25-0.11c0.18-0.07,0.37-0.14,0.56-0.2c0.16-0.06,0.31-0.11,0.47-0.16c0.08-0.02,0.16-0.04,0.24-0.06
		c0.91-0.25,1.86-0.39,2.85-0.39c0.87,0,1.7,0.11,2.51,0.31c-1.73-0.49-3.71-0.74-5.96-0.74c0,0-12.41-0.23-12.71-0.69v-0.12
		c0,0,18.65-52.86,20.11-58.72l-0.81-0.35c-0.23,0.16-0.46,0.23-0.69,0.23H87.6c-4.16,11.33-46.58,130.69-48.2,135.01
		c0,0.31,0.12,0.46,0.35,0.46h19.65c0.17,0,23.52-64.38,23.7-64.38h9.25l0.13-0.04c0-0.05-0.01-0.11-0.01-0.16
		C92.46,110.09,92.49,109.67,92.54,109.26z"/>
	<path class="st0" d="M110.63,102.6c0.04,0.03,0.07,0.06,0.11,0.1C110.7,102.66,110.67,102.63,110.63,102.6z"/>
	<path class="st0" d="M113.37,106.66c0.27,0.7,0.46,1.43,0.58,2.19C113.84,107.91,113.65,107.18,113.37,106.66z"/>
	<path class="st0" d="M111.21,103.18c0.07,0.07,0.13,0.14,0.2,0.22C111.34,103.32,111.28,103.25,111.21,103.18z"/>
	<path class="st0" d="M112.18,116.8c0,0.11-0.08,0.16-0.24,0.16h-0.01c-0.16,0.21-0.32,0.41-0.49,0.61c-0.01,0.12-0.06,0.2-0.15,0.2
		h-0.03c-1.97,2.17-4.81,3.53-7.97,3.53c-0.01,0-0.02,0-0.03,0c-0.01,0-0.02,0-0.03,0c-0.27,0-0.54-0.02-0.8-0.04
		c-0.08-0.01-0.17-0.01-0.25-0.01c-1.18-0.12-2.3-0.42-3.34-0.88v0.06h-0.08c-0.11-0.05-0.21-0.08-0.32-0.08v-0.16h0.02
		c-0.14-0.07-0.28-0.13-0.42-0.21v0.13c-0.21-0.11-0.35-0.16-0.4-0.16v-0.08h0.08c0.11,0.04,0.19,0.06,0.25,0.07
		c-2.47-1.38-4.32-3.71-5.1-6.49c-4.86,13.48-21.95,61.25-22.04,61.68c0.15,0,0.38,0.08,0.69,0.23c9.25-0.15,14.8-0.23,16.65-0.23
		c0.38,0,1.5,0.08,3.35,0.23c0-0.15,0.19-0.35,0.58-0.58c0.59-1.72,5.57-15.83,10.65-30.33c3.83-10.94,7.7-22.1,9.78-28.35
		c-0.11,0.19-0.23,0.38-0.35,0.56V116.8z M100.22,120.97h-0.08c-0.59-0.27-0.96-0.4-1.12-0.4v-0.08h0.08l1.12,0.4V120.97z
		 M101.26,121.29h-0.08c-0.43-0.16-0.72-0.24-0.88-0.24v-0.08h0.32c0.05,0,0.27,0.08,0.64,0.24V121.29z"/>
	<path class="st0" d="M114.07,111.06c0-0.01,0-0.02,0-0.03c0,0.02,0,0.04,0,0.06C114.06,111.08,114.07,111.07,114.07,111.06z"/>
	<path class="st1" d="M99.01,120.49v0.08c0.16,0,0.53,0.13,1.12,0.4h0.08v-0.08l-1.12-0.4H99.01z"/>
	<path class="st1" d="M100.3,120.97v0.08c0.16,0,0.45,0.08,0.88,0.24h0.08v-0.08c-0.38-0.16-0.59-0.24-0.64-0.24H100.3z"/>
	<path class="st1" d="M97.73,119.85h-0.08v0.08c0.05,0,0.19,0.05,0.4,0.16v-0.13c-0.02-0.01-0.05-0.03-0.07-0.04
		C97.92,119.91,97.84,119.89,97.73,119.85z"/>
	<path class="st1" d="M98.45,120.17v0.16c0.11,0,0.21,0.03,0.32,0.08h0.08v-0.06c-0.13-0.06-0.26-0.12-0.38-0.18H98.45z"/>
	<rect x="114.02" y="108.69" class="st1" width="0.08" height="0.32"/>
	<path class="st1" d="M112.74,116l0.08-0.4c0,0,0-0.01,0-0.01c-0.08,0.14-0.16,0.28-0.24,0.41H112.74z"/>
	<path class="st1" d="M112.18,116.8v-0.17c-0.08,0.11-0.16,0.22-0.25,0.33h0.01C112.1,116.96,112.18,116.91,112.18,116.8z"/>
	<path class="st1" d="M111.45,117.57c-0.06,0.07-0.12,0.13-0.18,0.2h0.03C111.39,117.76,111.43,117.69,111.45,117.57z"/>
	<path class="st0" d="M97.98,119.92c0.02,0.01,0.05,0.03,0.07,0.04v-0.03C98.03,119.93,98,119.92,97.98,119.92z"/>
	<path class="st2" d="M97.98,119.92c0.02,0.01,0.05,0.03,0.07,0.04v-0.03C98.03,119.93,98,119.92,97.98,119.92z"/>
	<path class="st0" d="M98.55,120.18c-0.01,0-0.02-0.01-0.03-0.01h-0.05c0.13,0.06,0.25,0.13,0.38,0.18v-0.02
		C98.8,120.33,98.7,120.28,98.55,120.18z"/>
	<path class="st2" d="M98.55,120.18c-0.01,0-0.02-0.01-0.03-0.01h-0.05c0.13,0.06,0.25,0.13,0.38,0.18v-0.02
		C98.8,120.33,98.7,120.28,98.55,120.18z"/>
	<path class="st2" d="M92.65,112.16c-0.08-0.49-0.13-0.99-0.13-1.5l-0.05,0.02c0.01,0.62,0.07,1.22,0.18,1.81l0.02-0.02
		L92.65,112.16z"/>
	<path class="st0" d="M92.51,110.5c0-0.4,0.03-0.8,0.07-1.19c-0.01-0.02-0.03-0.03-0.04-0.05c-0.05,0.41-0.08,0.83-0.08,1.25
		c0,0.05,0.01,0.11,0.01,0.16l0.05-0.02C92.51,110.6,92.51,110.55,92.51,110.5z"/>
	<path class="st2" d="M92.51,110.5c0-0.4,0.03-0.8,0.07-1.19c-0.01-0.02-0.03-0.03-0.04-0.05c-0.05,0.41-0.08,0.83-0.08,1.25
		c0,0.05,0.01,0.11,0.01,0.16l0.05-0.02C92.51,110.6,92.51,110.55,92.51,110.5z"/>
	<path class="st1" d="M92.65,112.16l0.02,0.3l-0.02,0.02c0.06,0.32,0.14,0.63,0.23,0.94c0.01-0.02,0.02-0.04,0.02-0.07
		C92.79,112.97,92.71,112.57,92.65,112.16z"/>
	<path class="st1" d="M103.24,121.29c0.01,0,0.02,0,0.03,0c-0.28,0-0.56-0.02-0.83-0.04C102.7,121.27,102.97,121.29,103.24,121.29z"
		/>
	<path class="st1" d="M97.98,119.92c0.02,0,0.05,0.01,0.07,0.01v0.03c0.14,0.08,0.28,0.14,0.42,0.21h0.05
		c-2.73-1.35-4.8-3.82-5.62-6.81c-0.01,0.02-0.02,0.04-0.02,0.07C93.66,116.21,95.51,118.53,97.98,119.92z"/>
	<path class="st1" d="M98.85,120.33v0.02c1.04,0.46,2.16,0.77,3.34,0.88c-1.29-0.13-2.52-0.5-3.63-1.05
		C98.7,120.28,98.8,120.33,98.85,120.33z"/>
	<path class="st3" d="M113.95,108.85c0.07,0.63,0.11,1.36,0.11,2.19c0.01-0.18,0.03-0.35,0.03-0.53
		C114.09,109.94,114.04,109.39,113.95,108.85z"/>
	<path class="st3" d="M112.53,116.07c0.02-0.03,0.03-0.05,0.05-0.08h-0.02C112.55,116.02,112.54,116.05,112.53,116.07z"/>
	<path class="st3" d="M111.41,103.4c0.16,0.19,0.32,0.38,0.47,0.58C111.73,103.78,111.57,103.58,111.41,103.4z"/>
	<path class="st3" d="M113.37,106.66c-0.36-0.95-0.85-1.83-1.45-2.63c0.53,0.72,0.98,1.52,1.34,2.41
		C113.3,106.51,113.34,106.58,113.37,106.66z"/>
	<path class="st3" d="M110.74,102.7c0.16,0.15,0.32,0.32,0.47,0.48C111.06,103.01,110.9,102.85,110.74,102.7z"/>
	<path class="st3" d="M105.81,100.01c1.94,0.55,3.54,1.41,4.82,2.58C109.29,101.36,107.65,100.45,105.81,100.01z"/>
	<path class="st0" d="M102.44,121.25c-0.08-0.01-0.17-0.01-0.25-0.01C102.27,121.25,102.36,121.24,102.44,121.25z"/>
	<path class="st3" d="M102.44,121.25c-0.08-0.01-0.17-0.01-0.25-0.01C102.27,121.25,102.36,121.24,102.44,121.25z"/>
	<path class="st0" d="M113.37,106.66c-0.04-0.07-0.08-0.15-0.12-0.22c-0.36-0.89-0.8-1.69-1.34-2.41c-0.01-0.02-0.03-0.03-0.04-0.05
		c-0.15-0.2-0.31-0.39-0.47-0.58c-0.07-0.07-0.13-0.15-0.2-0.22c-0.15-0.16-0.31-0.33-0.47-0.48c-0.03-0.03-0.07-0.06-0.11-0.1
		c-1.28-1.17-2.89-2.03-4.82-2.58c-0.81-0.19-1.64-0.31-2.51-0.31c-0.99,0-1.94,0.14-2.85,0.39c0.89-0.24,1.83-0.37,2.8-0.37
		c0.5,0,0.99,0.05,1.47,0.11c0.3,0.04,0.61,0.09,0.9,0.16c1.49,0.34,2.87,0.98,4.05,1.87h0.02c0.11,0.06,0.21,0.15,0.3,0.24
		c2.46,1.98,4.04,5,4.04,8.4c0,0.34-0.02,0.67-0.05,0.99c0.05-0.2,0.08-0.35,0.09-0.42c0-0.02,0-0.04,0-0.06
		c0-0.82-0.04-1.55-0.11-2.19C113.83,108.09,113.64,107.36,113.37,106.66z"/>
	<path class="st3" d="M113.37,106.66c-0.04-0.07-0.08-0.15-0.12-0.22c-0.36-0.89-0.8-1.69-1.34-2.41c-0.01-0.02-0.03-0.03-0.04-0.05
		c-0.15-0.2-0.31-0.39-0.47-0.58c-0.07-0.07-0.13-0.15-0.2-0.22c-0.15-0.16-0.31-0.33-0.47-0.48c-0.03-0.03-0.07-0.06-0.11-0.1
		c-1.28-1.17-2.89-2.03-4.82-2.58c-0.81-0.19-1.64-0.31-2.51-0.31c-0.99,0-1.94,0.14-2.85,0.39c0.89-0.24,1.83-0.37,2.8-0.37
		c0.5,0,0.99,0.05,1.47,0.11c0.3,0.04,0.61,0.09,0.9,0.16c1.49,0.34,2.87,0.98,4.05,1.87h0.02c0.11,0.06,0.21,0.15,0.3,0.24
		c2.46,1.98,4.04,5,4.04,8.4c0,0.34-0.02,0.67-0.05,0.99c0.05-0.2,0.08-0.35,0.09-0.42c0-0.02,0-0.04,0-0.06
		c0-0.82-0.04-1.55-0.11-2.19C113.83,108.09,113.64,107.36,113.37,106.66z"/>
	<path class="st1" d="M109.69,101.87h-0.02c0.11,0.08,0.22,0.16,0.32,0.24C109.9,102.01,109.8,101.93,109.69,101.87z"/>
	<path class="st3" d="M109.69,101.87h-0.02c0.11,0.08,0.22,0.16,0.32,0.24C109.9,102.01,109.8,101.93,109.69,101.87z"/>
	<path class="st1" d="M112.62,115.82c-0.02,0.06-0.04,0.12-0.06,0.18h0.02c0.08-0.14,0.17-0.27,0.24-0.41
		c0-0.04-0.01-0.08-0.01-0.11C112.75,115.59,112.68,115.7,112.62,115.82z"/>
	<path class="st1" d="M112.56,116c0.02-0.06,0.04-0.12,0.06-0.18c-0.03,0.06-0.07,0.12-0.1,0.18H112.56z"/>
	<path class="st1" d="M112.18,116.55c-0.1,0.14-0.21,0.27-0.31,0.41h0.06c0.08-0.11,0.17-0.22,0.25-0.33V116.55z"/>
	<path class="st1" d="M111.46,117.52v-0.03c-0.08,0.09-0.17,0.18-0.25,0.27h0.06c0.06-0.07,0.12-0.13,0.18-0.2
		C111.45,117.55,111.46,117.54,111.46,117.52z"/>
	<path class="st0" d="M98.53,120.17L98.53,120.17c0,0,0.01,0.01,0.02,0.01C98.54,120.18,98.54,120.18,98.53,120.17z"/>
	<path class="st2" d="M98.53,120.17L98.53,120.17c0,0,0.01,0.01,0.02,0.01C98.54,120.18,98.54,120.18,98.53,120.17z"/>
	<path class="st3" d="M98.53,120.17L98.53,120.17c0,0,0.01,0.01,0.02,0.01C98.54,120.18,98.54,120.18,98.53,120.17z"/>
	<path class="st2" d="M92.59,110.63l-0.08,0.03c0.01,0.51,0.06,1.01,0.13,1.5l-0.06-0.74V110.63z"/>
	<path class="st3" d="M92.59,110.63l-0.08,0.03c0.01,0.51,0.06,1.01,0.13,1.5l-0.06-0.74V110.63z"/>
	<path class="st0" d="M92.59,109.33c-0.01-0.01-0.01-0.01-0.01-0.02c-0.04,0.39-0.07,0.79-0.07,1.19c0,0.05,0.01,0.1,0.01,0.16
		l0.08-0.03V109.33z"/>
	<path class="st2" d="M92.59,109.33c-0.01-0.01-0.01-0.01-0.01-0.02c-0.04,0.39-0.07,0.79-0.07,1.19c0,0.05,0.01,0.1,0.01,0.16
		l0.08-0.03V109.33z"/>
	<path class="st3" d="M92.59,109.33c-0.01-0.01-0.01-0.01-0.01-0.02c-0.04,0.39-0.07,0.79-0.07,1.19c0,0.05,0.01,0.1,0.01,0.16
		l0.08-0.03V109.33z"/>
	<path class="st1" d="M111.46,117.36c0-1.18-0.4-2.25-1.2-3.21h-0.08c0.64,1.5,0.96,2.6,0.96,3.29v0.32h0.07
		c0.08-0.09,0.17-0.18,0.25-0.27V117.36z"/>
	<path class="st1" d="M92.68,110.6l-0.09,0.03v0.79l0.06,0.74c0.06,0.41,0.15,0.81,0.25,1.2c0.28-0.77,0.51-1.42,0.71-1.95
		C93.61,111.1,93.3,110.83,92.68,110.6z"/>
	<path class="st1" d="M99.74,100.32c-0.19,0.07-0.37,0.13-0.56,0.2c-0.08,0.03-0.17,0.07-0.25,0.11c-0.25,0.11-0.5,0.23-0.74,0.36
		c-0.03,0.01-0.05,0.03-0.08,0.04c-3.01,1.65-5.14,4.7-5.53,8.27c0,0.01,0.01,0.01,0.01,0.02v1.3l0.09-0.03
		c0.62,0.23,0.92,0.5,0.92,0.81c-0.19,0.52-0.43,1.18-0.71,1.95c0.82,2.99,2.89,5.46,5.62,6.81h0.01c0.01,0.01,0.01,0.01,0.02,0.01
		c1.12,0.55,2.34,0.92,3.63,1.05c0.08,0.01,0.17,0.01,0.25,0.01c0.28,0.02,0.55,0.04,0.83,0.04c2.98-0.01,5.68-1.23,7.62-3.19v-0.42
		c-0.16-1.02-0.78-2.19-1.85-3.53c-1.93,3.32-3.93,5.43-6.02,6.34c-0.11-0.21-0.19-0.32-0.24-0.32c2.51-1.82,4.17-3.75,4.98-5.78
		c0-0.05-0.03-0.13-0.08-0.24c-0.21,0.11-0.32,0.19-0.32,0.24c-1.23,2.36-2.86,4.2-4.9,5.54h-0.08l-0.72-0.08v-0.24
		c0.16,0,0.53-0.27,1.12-0.8c1.87-1.77,3.16-3.4,3.85-4.9l-0.16-0.08h-0.08c-0.11,0-0.4,0.4-0.88,1.2c-1.18,1.82-2.6,3.29-4.26,4.42
		c-0.11-0.16-0.24-0.24-0.4-0.24v-0.16c2.41-2.25,3.91-4.2,4.5-5.86h-0.08l-0.4,0.32c-0.8,1.71-2.22,3.45-4.26,5.22h-0.08l-0.4-0.32
		c2.68-2.84,4.39-5.38,5.14-7.63c0-0.11-0.16-0.29-0.48-0.56c-3.21-2.03-5.91-3.13-8.11-3.29v-0.24l0.32-0.48
		c1.61,0,3.4,0.46,5.38,1.36c0.11,0,0.16-0.05,0.16-0.16c-0.11-0.27-1.12-0.72-3.05-1.36c-1.61-0.21-2.41-0.37-2.41-0.48
		c0.16-0.21,0.24-0.35,0.24-0.4V105c1.77,0,3.64,0.43,5.62,1.28c0.21,0,0.32-0.05,0.32-0.16c-0.7-0.64-2.57-1.2-5.62-1.69
		c0.21-0.21,0.32-0.43,0.32-0.64h0.16c1.77,0.05,3.64,0.51,5.62,1.36c0.11,0,0.16-0.08,0.16-0.24v-0.16
		c-2.36-0.91-4.17-1.36-5.46-1.36v-0.16c0.11-0.21,0.16-0.4,0.16-0.56h0.16c0.16,0,0.27,0.03,0.32,0.08l0.24-0.08
		c2.03,0,4.52,0.88,7.47,2.65h0.16c0.05-1.28,0.11-2.14,0.16-2.57c0-0.91-0.16-1.69-0.48-2.33c0.86,0,1.28,1.12,1.28,3.37h0.24
		c0-0.27,0.03-0.45,0.08-0.56c-0.05-1.02-0.21-1.77-0.48-2.25v-0.16c0.59,0,0.96,1.1,1.12,3.29h0.16c0-0.05,0.03-0.13,0.08-0.24
		c0-0.91-0.16-1.77-0.48-2.57c0.64,0,1.02,0.91,1.12,2.73v0.4c0,0.16,0.08,0.24,0.24,0.24h0.16c0-0.86-0.19-1.74-0.56-2.65v-0.16
		h0.06c-1.19-0.88-2.56-1.53-4.05-1.87c-0.01,0.01-0.01,0.01-0.02,0.02c-0.05,0-0.32-0.03-0.8-0.08c-0.03-0.03-0.05-0.07-0.08-0.1
		c-0.48-0.07-0.97-0.11-1.47-0.11c-0.97,0-1.9,0.13-2.8,0.37c-0.08,0.02-0.16,0.04-0.24,0.06
		C100.05,100.21,99.89,100.27,99.74,100.32z"/>
	<path class="st1" d="M113.14,114.71l-0.02,0.11c0.45-1.03,0.74-2.15,0.85-3.31c-0.14,0.53-0.43,1.48-0.86,2.79
		C113.13,114.43,113.14,114.58,113.14,114.71z"/>
	<path class="st1" d="M110.67,108.93c1.55,2.06,2.38,3.84,2.51,5.36c0.43-1.31,0.73-2.26,0.87-2.79c0.03-0.33,0.05-0.66,0.05-0.99
		c0-3.4-1.61-6.43-4.12-8.4c0.57,0.57,0.88,1.74,0.92,3.53C110.91,106.28,110.83,107.38,110.67,108.93z"/>
	<path class="st1" d="M112.81,115.47c0-0.06-0.02-0.12-0.02-0.19c-0.06,0.17-0.12,0.35-0.18,0.53
		C112.68,115.7,112.75,115.59,112.81,115.47z"/>
	<path class="st2" d="M112.81,115.47c0-0.06-0.02-0.12-0.02-0.19c-0.06,0.17-0.12,0.35-0.18,0.53
		C112.68,115.7,112.75,115.59,112.81,115.47z"/>
	<path class="st1" d="M111.46,112.06v0.08c0.69,1.34,1.04,2.52,1.04,3.53V116h0.01c0.04-0.06,0.07-0.12,0.1-0.18
		c0.06-0.18,0.12-0.36,0.18-0.53c-0.06-1.08-0.44-2.21-1.17-3.38C111.56,111.9,111.51,111.96,111.46,112.06z"/>
	<path class="st2" d="M111.46,112.06v0.08c0.69,1.34,1.04,2.52,1.04,3.53V116h0.01c0.04-0.06,0.07-0.12,0.1-0.18
		c0.06-0.18,0.12-0.36,0.18-0.53c-0.06-1.08-0.44-2.21-1.17-3.38C111.56,111.9,111.51,111.96,111.46,112.06z"/>
	<path class="st1" d="M112.18,116.08c0-0.91-0.38-1.87-1.12-2.89h-0.08v0.16c0.64,1.71,0.96,2.86,0.96,3.45
		c-0.05,0-0.08,0.03-0.08,0.08v0.08h0.01c0.1-0.14,0.21-0.27,0.31-0.41V116.08z"/>
	<path class="st2" d="M112.18,116.08c0-0.91-0.38-1.87-1.12-2.89h-0.08v0.16c0.64,1.71,0.96,2.86,0.96,3.45
		c-0.05,0-0.08,0.03-0.08,0.08v0.08h0.01c0.1-0.14,0.21-0.27,0.31-0.41V116.08z"/>
	<path class="st4" d="M456.33,116.03h-0.12v0.04c0.26,0.17,0.5,0.36,0.75,0.55C456.78,116.37,456.57,116.17,456.33,116.03z"/>
	<path class="st4" d="M453.55,114.53v0.11c0.23,0.1,0.44,0.21,0.66,0.32C454.02,114.69,453.8,114.53,453.55,114.53z"/>
	<path class="st4" d="M454.83,115.22c0,0.01,0.01,0.02,0.01,0.03c0.29,0.15,0.57,0.32,0.84,0.5
		C455.45,115.4,455.16,115.22,454.83,115.22z"/>
	<path class="st4" d="M451.94,113.95c0.02,0.04,0.04,0.09,0.06,0.14c0.29,0.09,0.58,0.19,0.86,0.3
		C452.6,114.11,452.3,113.95,451.94,113.95z"/>
	<path class="st0" d="M487.19,83.67h-14.68c-1.08,0-1.97,0.27-2.66,0.81c-0.85,0.77-2.54,3.51-5.09,8.21
		c-3.85,6.94-8.63,13.83-14.33,20.69c-0.08,0-0.46-0.04-1.16-0.12c-3.31-3.93-6.97-9.59-10.98-16.99c-2.08-4.39-3.2-6.66-3.35-6.82
		c-1.08-3.85-2.77-5.78-5.09-5.78h-19.42c-1.31,0.16-1.96,0.73-1.96,1.73v0.81c0,1.39,1.81,5.97,5.43,13.76
		c3.54,7.17,9.48,16.11,17.8,26.82v1.33c0.55-8.2,7.37-14.69,15.73-14.69c1.58,0,3.11,0.24,4.55,0.67
		c-0.02-0.04-0.03-0.09-0.06-0.14c0.36,0,0.66,0.16,0.92,0.43c0.23,0.09,0.47,0.16,0.7,0.26v-0.11c0.25,0,0.47,0.15,0.66,0.43
		c0.21,0.1,0.42,0.19,0.62,0.3c0-0.01-0.01-0.02-0.01-0.03c0.34,0,0.62,0.18,0.85,0.53c0.18,0.11,0.36,0.21,0.53,0.32v-0.04h0.12
		c0.24,0.14,0.45,0.34,0.64,0.59c3.31,2.5,5.59,6.26,6.13,10.58c0.55-0.54,2.33-2.48,5.37-5.85c6.09-7.4,10.87-14.02,14.33-19.88
		c4.55-8.55,6.82-13.87,6.82-15.95V85.4C489.62,84.25,488.81,83.67,487.19,83.67z"/>
	<path class="st0" d="M431.82,131.3l-3.69,3.69c-4.93,5.55-9.21,11.14-12.83,16.76c-5.86,10.25-9.13,17.22-9.83,20.92v0.23
		c0,1.39,0.92,2.08,2.77,2.08H422c3.01,0,4.82-0.69,5.43-2.08c2.39-5.39,5.55-11.21,9.48-17.45c2.07-3.41,4.73-7,7.94-10.76
		C438.06,143.57,432.75,138.14,431.82,131.3z"/>
	<path class="st1" d="M431.71,129.79v-1.68c-0.02,0.35-0.05,0.7-0.05,1.06c0,0.72,0.07,1.43,0.16,2.13l0.01-0.01L431.71,129.79z"/>
	<path class="st0" d="M524.97,103.78c14.44,14.38,25.32,25.11,29.82,29.51c1.7,1.66,4.41,1.66,6.11,0c2.59-2.52,3.13-5.9,4.45-7.15
		c3.23-3.06,9.72,1.96,9.72,1.96c-0.6,0.71-55.11,56.13-55.42,56.13c-0.23,0-6.93-5.1-2.51-9.84c1.05-1.12,4.12-2.37,6.09-3.09
		c0.8-0.29,1.03-1.31,0.43-1.92c-5.47-5.46-26.14-26.08-26.2-26.08c-0.08,0-3,2.93-8.78,8.78c-0.16-0.23-0.23-11.79-0.23-11.79
		C488.44,139.77,524.97,103.78,524.97,103.78z"/>
</g>
</svg>
